<?xml version="1.0" encoding="utf-8" standalone="no"?>
<!DOCTYPE svg PUBLIC "-//W3C//DTD SVG 1.1//EN"
  "http://www.w3.org/Graphics/SVG/1.1/DTD/svg11.dtd">
<svg xmlns:xlink="http://www.w3.org/1999/xlink" width="518.740157pt" height="431.312041pt" viewBox="0 0 518.740157 431.312041" xmlns="http://www.w3.org/2000/svg" version="1.1">
 <metadata>
  <rdf:RDF xmlns:dc="http://purl.org/dc/elements/1.1/" xmlns:cc="http://creativecommons.org/ns#" xmlns:rdf="http://www.w3.org/1999/02/22-rdf-syntax-ns#">
   <cc:Work>
    <dc:type rdf:resource="http://purl.org/dc/dcmitype/StillImage"/>
    <dc:date>2026-10-03T14:12:27.665925</dc:date>
    <dc:format>image/svg+xml</dc:format>
    <dc:creator>
     <cc:Agent>
      <dc:title>Matplotlib v3.11.2, https://matplotlib.org/</dc:title>
     </cc:Agent>
    </dc:creator>
   </cc:Work>
  </rdf:RDF>
 </metadata>
 <defs>
  <style type="text/css">*{stroke-linejoin: round; stroke-linecap: butt}</style>
 </defs>
 <g id="figure_1">
  <g id="patch_1">
   <path d="M 0 431.312041 
L 518.740157 431.312041 
L 518.740157 0 
L 0 0 
z
" style="fill: #ffffff"/>
  </g>
  <g id="subfigure_1">
   <g id="patch_2">
    <path d="M 0 113.462267 
L 254.182677 113.462267 
L 254.182677 0 
L 0 0 
L 0 113.462267 
z
" style="fill: none"/>
   </g>
   <g id="axes_1">
    <g id="patch_3">
     <path d="M 78.948531 89.509966 
L 231.864853 89.509966 
L 231.864853 4.251969 
L 78.948531 4.251969 
z
" style="fill: #ffffff"/>
    </g>
    <g id="line2d_1">
     <path d="M 78.948531 19.297497 
L 231.864853 19.297497 
" clip-path="url(#p8d545214d2)" style="fill: none; stroke: #e4e3dd; stroke-width: 0.5; stroke-linecap: round"/>
    </g>
    <g id="line2d_2">
     <path d="M 78.948531 39.358203 
L 231.864853 39.358203 
" clip-path="url(#p8d545214d2)" style="fill: none; stroke: #e4e3dd; stroke-width: 0.5; stroke-linecap: round"/>
    </g>
    <g id="line2d_3">
     <path d="M 78.948531 59.418908 
L 231.864853 59.418908 
" clip-path="url(#p8d545214d2)" style="fill: none; stroke: #e4e3dd; stroke-width: 0.5; stroke-linecap: round"/>
    </g>
    <g id="line2d_4">
     <path d="M 78.948531 79.479613 
L 231.864853 79.479613 
" clip-path="url(#p8d545214d2)" style="fill: none; stroke: #e4e3dd; stroke-width: 0.5; stroke-linecap: round"/>
    </g>
    <g id="matplotlib.axis_1">
     <g id="xtick_1">
      <g id="line2d_5">
       <defs>
        <path id="m2d55354cb6" d="M 0 0 
L 0 2.5 
" style="stroke: #3a3a38; stroke-width: 0.5"/>
       </defs>
       <g>
        <use xlink:href="#m2d55354cb6" x="102.309543" y="89.509966" style="fill: #3a3a38; stroke: #3a3a38; stroke-width: 0.5"/>
       </g>
      </g>
      <g id="text_1">
       <text style="font-size: 6px; font-family: 'Arial', 'DejaVu Sans'; text-anchor: middle; fill: #111111" x="102.309543" y="98.37813" transform="rotate(-0 102.309543 98.37813)">300</text>
      </g>
     </g>
     <g id="xtick_2">
      <g id="line2d_6">
       <g>
        <use xlink:href="#m2d55354cb6" x="145.297029" y="89.509966" style="fill: #3a3a38; stroke: #3a3a38; stroke-width: 0.5"/>
       </g>
      </g>
      <g id="text_2">
       <text style="font-size: 6px; font-family: 'Arial', 'DejaVu Sans'; text-anchor: middle; fill: #111111" x="145.297029" y="98.37813" transform="rotate(-0 145.297029 98.37813)">450</text>
      </g>
     </g>
     <g id="xtick_3">
      <g id="line2d_7">
       <g>
        <use xlink:href="#m2d55354cb6" x="188.284515" y="89.509966" style="fill: #3a3a38; stroke: #3a3a38; stroke-width: 0.5"/>
       </g>
      </g>
      <g id="text_3">
       <text style="font-size: 6px; font-family: 'Arial', 'DejaVu Sans'; text-anchor: middle; fill: #111111" x="188.284515" y="98.37813" transform="rotate(-0 188.284515 98.37813)">600</text>
      </g>
     </g>
     <g id="xtick_4">
      <g id="line2d_8">
       <g>
        <use xlink:href="#m2d55354cb6" x="231.272001" y="89.509966" style="fill: #3a3a38; stroke: #3a3a38; stroke-width: 0.5"/>
       </g>
      </g>
      <g id="text_4">
       <text style="font-size: 6px; font-family: 'Arial', 'DejaVu Sans'; text-anchor: middle; fill: #111111" x="231.272001" y="98.37813" transform="rotate(-0 231.272001 98.37813)">750</text>
      </g>
     </g>
     <g id="text_5">
      <text style="font-size: 7px; font-family: 'Arial', 'DejaVu Sans'; text-anchor: middle; fill: #111111" x="155.406692" y="107.737017" transform="rotate(-0 155.406692 107.737017)">Risk-adjusted objective (×10⁶; lower is better)</text>
     </g>
    </g>
    <g id="matplotlib.axis_2">
     <g id="ytick_1">
      <g id="line2d_9"/>
      <g id="text_6">
       <text style="font-size: 6px; font-family: 'Arial', 'DejaVu Sans'; text-anchor: end; fill: #111111" x="76.948531" y="21.48158" transform="rotate(-0 76.948531 21.48158)">Perfect information (WS)</text>
      </g>
     </g>
     <g id="ytick_2">
      <g id="line2d_10"/>
      <g id="text_7">
       <text style="font-size: 6px; font-family: 'Arial', 'DejaVu Sans'; text-anchor: end; fill: #111111" x="76.948531" y="41.542285" transform="rotate(-0 76.948531 41.542285)">Stochastic decision (RP)</text>
      </g>
     </g>
     <g id="ytick_3">
      <g id="line2d_11"/>
      <g id="text_8">
       <text style="font-size: 6px; font-family: 'Arial', 'DejaVu Sans'; text-anchor: end; fill: #111111" x="76.948531" y="61.60299" transform="rotate(-0 76.948531 61.60299)">Mean-value decision (EEV)</text>
      </g>
     </g>
     <g id="ytick_4">
      <g id="line2d_12"/>
      <g id="text_9">
       <text style="font-size: 6px; font-family: 'Arial', 'DejaVu Sans'; text-anchor: end; fill: #111111" x="76.948531" y="81.663695" transform="rotate(-0 76.948531 81.663695)">Deterministic estimate (EV)</text>
      </g>
     </g>
    </g>
    <g id="line2d_13">
     <path d="M 95.455864 30.330885 
L 101.356335 30.330885 
" clip-path="url(#p8d545214d2)" style="fill: none; stroke: #4d4c48; stroke-width: 0.8"/>
    </g>
    <g id="line2d_14">
     <path d="M 95.455864 32.136349 
L 95.455864 28.525422 
" clip-path="url(#p8d545214d2)" style="fill: none; stroke: #4d4c48; stroke-width: 0.8; stroke-linecap: round"/>
    </g>
    <g id="line2d_15">
     <path d="M 101.356335 32.136349 
L 101.356335 28.525422 
" clip-path="url(#p8d545214d2)" style="fill: none; stroke: #4d4c48; stroke-width: 0.8; stroke-linecap: round"/>
    </g>
    <g id="line2d_16">
     <path d="M 101.356335 50.391591 
L 223.672907 50.391591 
" clip-path="url(#p8d545214d2)" style="fill: none; stroke: #4d4c48; stroke-width: 0.8"/>
    </g>
    <g id="line2d_17">
     <path d="M 101.356335 52.197054 
L 101.356335 48.586127 
" clip-path="url(#p8d545214d2)" style="fill: none; stroke: #4d4c48; stroke-width: 0.8; stroke-linecap: round"/>
    </g>
    <g id="line2d_18">
     <path d="M 223.672907 52.197054 
L 223.672907 48.586127 
" clip-path="url(#p8d545214d2)" style="fill: none; stroke: #4d4c48; stroke-width: 0.8; stroke-linecap: round"/>
    </g>
    <g id="patch_4">
     <path d="M 78.948531 89.509966 
L 231.864853 89.509966 
" style="fill: none; stroke: #3a3a38; stroke-width: 0.5; stroke-linejoin: miter; stroke-linecap: square"/>
    </g>
    <g id="line2d_19">
     <defs>
      <path id="mc15ef5c5e2" d="M 0 3.676955 
L 3.676955 0 
L 0 -3.676955 
L -3.676955 0 
z
" style="stroke: #ffffff; stroke-width: 0.6; stroke-linejoin: miter"/>
     </defs>
     <g clip-path="url(#p8d545214d2)">
      <use xlink:href="#mc15ef5c5e2" x="95.455864" y="19.297497" style="fill: #1baf7a; stroke: #ffffff; stroke-width: 0.6; stroke-linejoin: miter"/>
     </g>
    </g>
    <g id="text_10">
     <text style="font-size: 6px; font-family: 'Arial', 'DejaVu Sans'; text-anchor: start; fill: #111111" x="234.923179" y="20.850232" transform="rotate(-0 234.923179 20.850232)">276M</text>
    </g>
    <g id="line2d_20">
     <defs>
      <path id="md5cb3e3c0b" d="M -2.6 2.6 
L 2.6 2.6 
L 2.6 -2.6 
L -2.6 -2.6 
z
" style="stroke: #ffffff; stroke-width: 0.6; stroke-linejoin: miter"/>
     </defs>
     <g clip-path="url(#p8d545214d2)">
      <use xlink:href="#md5cb3e3c0b" x="101.356335" y="39.358203" style="fill: #eb6834; stroke: #ffffff; stroke-width: 0.6; stroke-linejoin: miter"/>
     </g>
    </g>
    <g id="text_11">
     <text style="font-size: 6px; font-family: 'Arial', 'DejaVu Sans'; text-anchor: start; fill: #111111" x="234.923179" y="40.910937" transform="rotate(-0 234.923179 40.910937)">297M</text>
    </g>
    <g id="line2d_21">
     <defs>
      <path id="mb4b8dcb167" d="M 0 2.6 
C 0.689528 2.6 1.350908 2.326048 1.838478 1.838478 
C 2.326048 1.350908 2.6 0.689528 2.6 0 
C 2.6 -0.689528 2.326048 -1.350908 1.838478 -1.838478 
C 1.350908 -2.326048 0.689528 -2.6 0 -2.6 
C -0.689528 -2.6 -1.350908 -2.326048 -1.838478 -1.838478 
C -2.326048 -1.350908 -2.6 -0.689528 -2.6 0 
C -2.6 0.689528 -2.326048 1.350908 -1.838478 1.838478 
C -1.350908 2.326048 -0.689528 2.6 0 2.6 
z
" style="stroke: #ffffff; stroke-width: 0.6"/>
     </defs>
     <g clip-path="url(#p8d545214d2)">
      <use xlink:href="#mb4b8dcb167" x="223.672907" y="59.418908" style="fill: #2a78d6; stroke: #ffffff; stroke-width: 0.6"/>
     </g>
    </g>
    <g id="text_12">
     <text style="font-size: 6px; font-family: 'Arial', 'DejaVu Sans'; text-anchor: start; fill: #111111" x="234.923179" y="60.971643" transform="rotate(-0 234.923179 60.971643)">723M</text>
    </g>
    <g id="line2d_22">
     <defs>
      <path id="m414a20bce8" d="M 0 2.3 
C 0.609967 2.3 1.195034 2.057657 1.626346 1.626346 
C 2.057657 1.195034 2.3 0.609967 2.3 0 
C 2.3 -0.609967 2.057657 -1.195034 1.626346 -1.626346 
C 1.195034 -2.057657 0.609967 -2.3 0 -2.3 
C -0.609967 -2.3 -1.195034 -2.057657 -1.626346 -1.626346 
C -2.057657 -1.195034 -2.3 -0.609967 -2.3 0 
C -2.3 0.609967 -2.057657 1.195034 -1.626346 1.626346 
C -1.195034 2.057657 -0.609967 2.3 0 2.3 
z
" style="stroke: #8a8984"/>
     </defs>
     <g clip-path="url(#p8d545214d2)">
      <use xlink:href="#m414a20bce8" x="87.140477" y="79.479613" style="fill: #ffffff; stroke: #8a8984"/>
     </g>
    </g>
    <g id="text_13">
     <text style="font-size: 6px; font-family: 'Arial', 'DejaVu Sans'; text-anchor: start; fill: #4d4c48" x="234.923179" y="81.032348" transform="rotate(-0 234.923179 81.032348)">247M</text>
    </g>
    <g id="text_14">
     <text style="font-size: 6px; font-family: 'Arial', 'DejaVu Sans'; text-anchor: start; fill: #111111" x="103.191331" y="31.88362" transform="rotate(-0 103.191331 31.88362)">EVPI 20.6M</text>
    </g>
    <g id="text_15">
     <text style="font-size: 6px; font-family: 'Arial', 'DejaVu Sans'; text-anchor: middle; fill: #111111" x="162.514621" y="46.601247" transform="rotate(-0 162.514621 46.601247)">VSS 427M</text>
    </g>
   </g>
   <g id="text_16">
    <text style="font-weight: 700; font-size: 8px; font-family: 'Arial', 'DejaVu Sans'; text-anchor: start; fill: #111111" x="0" y="5.824219" transform="rotate(-0 0 5.824219)">a</text>
   </g>
  </g>
  <g id="subfigure_2">
   <g id="patch_5">
    <path d="M 264.55748 113.462267 
L 518.740157 113.462267 
L 518.740157 0 
L 264.55748 0 
L 264.55748 113.462267 
z
" style="fill: none"/>
   </g>
   <g id="axes_2">
    <g id="patch_6">
     <path d="M 296.826011 70.57517 
L 507.627193 70.57517 
L 507.627193 4.251969 
L 296.826011 4.251969 
z
" style="fill: #ffffff"/>
    </g>
    <g id="line2d_23">
     <path d="M 296.826011 58.13957 
L 507.627193 58.13957 
" clip-path="url(#p0c81fd5d77)" style="fill: none; stroke: #e4e3dd; stroke-width: 0.5; stroke-linecap: round"/>
    </g>
    <g id="line2d_24">
     <path d="M 296.826011 37.413569 
L 507.627193 37.413569 
" clip-path="url(#p0c81fd5d77)" style="fill: none; stroke: #e4e3dd; stroke-width: 0.5; stroke-linecap: round"/>
    </g>
    <g id="line2d_25">
     <path d="M 296.826011 16.687569 
L 507.627193 16.687569 
" clip-path="url(#p0c81fd5d77)" style="fill: none; stroke: #e4e3dd; stroke-width: 0.5; stroke-linecap: round"/>
    </g>
    <g id="line2d_26">
     <path d="M 369.948864 58.13957 
L 341.993768 58.13957 
" clip-path="url(#p0c81fd5d77)" style="fill: none; stroke: #c4c3bb; stroke-width: 1.4"/>
    </g>
    <g id="line2d_27">
     <path d="M 457.381609 37.413569 
L 493.089181 37.413569 
" clip-path="url(#p0c81fd5d77)" style="fill: none; stroke: #c4c3bb; stroke-width: 1.4"/>
    </g>
    <g id="line2d_28">
     <path d="M 311.364024 16.687569 
L 381.406924 16.687569 
" clip-path="url(#p0c81fd5d77)" style="fill: none; stroke: #c4c3bb; stroke-width: 1.4"/>
    </g>
    <g id="matplotlib.axis_3">
     <g id="xtick_5">
      <g id="line2d_29">
       <g>
        <use xlink:href="#m2d55354cb6" x="311.364024" y="70.57517" style="fill: #3a3a38; stroke: #3a3a38; stroke-width: 0.5"/>
       </g>
      </g>
      <g id="text_17">
       <text style="font-size: 6px; font-family: 'Arial', 'DejaVu Sans'; text-anchor: middle; fill: #111111" x="311.364024" y="79.443334" transform="rotate(-0 311.364024 79.443334)">0</text>
      </g>
     </g>
     <g id="xtick_6">
      <g id="line2d_30">
       <g>
        <use xlink:href="#m2d55354cb6" x="360.268424" y="70.57517" style="fill: #3a3a38; stroke: #3a3a38; stroke-width: 0.5"/>
       </g>
      </g>
      <g id="text_18">
       <text style="font-size: 6px; font-family: 'Arial', 'DejaVu Sans'; text-anchor: middle; fill: #111111" x="360.268424" y="79.443334" transform="rotate(-0 360.268424 79.443334)">300</text>
      </g>
     </g>
     <g id="xtick_7">
      <g id="line2d_31">
       <g>
        <use xlink:href="#m2d55354cb6" x="409.172825" y="70.57517" style="fill: #3a3a38; stroke: #3a3a38; stroke-width: 0.5"/>
       </g>
      </g>
      <g id="text_19">
       <text style="font-size: 6px; font-family: 'Arial', 'DejaVu Sans'; text-anchor: middle; fill: #111111" x="409.172825" y="79.443334" transform="rotate(-0 409.172825 79.443334)">600</text>
      </g>
     </g>
     <g id="xtick_8">
      <g id="line2d_32">
       <g>
        <use xlink:href="#m2d55354cb6" x="458.077225" y="70.57517" style="fill: #3a3a38; stroke: #3a3a38; stroke-width: 0.5"/>
       </g>
      </g>
      <g id="text_20">
       <text style="font-size: 6px; font-family: 'Arial', 'DejaVu Sans'; text-anchor: middle; fill: #111111" x="458.077225" y="79.443334" transform="rotate(-0 458.077225 79.443334)">900</text>
      </g>
     </g>
     <g id="xtick_9">
      <g id="line2d_33">
       <g>
        <use xlink:href="#m2d55354cb6" x="506.981626" y="70.57517" style="fill: #3a3a38; stroke: #3a3a38; stroke-width: 0.5"/>
       </g>
      </g>
      <g id="text_21">
       <text style="font-size: 6px; font-family: 'Arial', 'DejaVu Sans'; text-anchor: middle; fill: #111111" x="506.981626" y="79.443334" transform="rotate(-0 506.981626 79.443334)">1,200</text>
      </g>
     </g>
     <g id="text_22">
      <text style="font-size: 7px; font-family: 'Arial', 'DejaVu Sans'; text-anchor: middle; fill: #111111" x="402.226602" y="88.802221" transform="rotate(-0 402.226602 88.802221)">First-stage value</text>
     </g>
    </g>
    <g id="matplotlib.axis_4">
     <g id="ytick_5">
      <g id="line2d_34"/>
      <g id="text_23">
       <text style="font-size: 6px; font-family: 'Arial', 'DejaVu Sans'; text-anchor: end; fill: #111111" x="294.826011" y="60.323652" transform="rotate(-0 294.826011 60.323652)">cap[mid]</text>
      </g>
     </g>
     <g id="ytick_6">
      <g id="line2d_35"/>
      <g id="text_24">
       <text style="font-size: 6px; font-family: 'Arial', 'DejaVu Sans'; text-anchor: end; fill: #111111" x="294.826011" y="39.597651" transform="rotate(-0 294.826011 39.597651)">cap[base]</text>
      </g>
     </g>
     <g id="ytick_7">
      <g id="line2d_36"/>
      <g id="text_25">
       <text style="font-size: 6px; font-family: 'Arial', 'DejaVu Sans'; text-anchor: end; fill: #111111" x="294.826011" y="18.871651" transform="rotate(-0 294.826011 18.871651)">cap[peak]</text>
      </g>
     </g>
    </g>
    <g id="patch_7">
     <path d="M 296.826011 70.57517 
L 507.627193 70.57517 
" style="fill: none; stroke: #3a3a38; stroke-width: 0.5; stroke-linejoin: miter; stroke-linecap: square"/>
    </g>
    <g id="line2d_37">
     <defs>
      <path id="m6a74199a57" d="M 0 2.5 
C 0.663008 2.5 1.29895 2.236584 1.767767 1.767767 
C 2.236584 1.29895 2.5 0.663008 2.5 0 
C 2.5 -0.663008 2.236584 -1.29895 1.767767 -1.767767 
C 1.29895 -2.236584 0.663008 -2.5 0 -2.5 
C -0.663008 -2.5 -1.29895 -2.236584 -1.767767 -1.767767 
C -2.236584 -1.29895 -2.5 -0.663008 -2.5 0 
C -2.5 0.663008 -2.236584 1.29895 -1.767767 1.767767 
C -1.29895 2.236584 -0.663008 2.5 0 2.5 
z
" style="stroke: #ffffff; stroke-width: 0.6"/>
     </defs>
     <g clip-path="url(#p0c81fd5d77)">
      <use xlink:href="#m6a74199a57" x="369.948864" y="58.13957" style="fill: #2a78d6; stroke: #ffffff; stroke-width: 0.6"/>
     </g>
    </g>
    <g id="line2d_38">
     <g clip-path="url(#p0c81fd5d77)">
      <use xlink:href="#m6a74199a57" x="457.381609" y="37.413569" style="fill: #2a78d6; stroke: #ffffff; stroke-width: 0.6"/>
     </g>
    </g>
    <g id="line2d_39">
     <g clip-path="url(#p0c81fd5d77)">
      <use xlink:href="#m6a74199a57" x="311.364024" y="16.687569" style="fill: #2a78d6; stroke: #ffffff; stroke-width: 0.6"/>
     </g>
    </g>
    <g id="line2d_40">
     <defs>
      <path id="m59408e16b9" d="M -2.3 2.3 
L 2.3 2.3 
L 2.3 -2.3 
L -2.3 -2.3 
z
" style="stroke: #ffffff; stroke-width: 0.6; stroke-linejoin: miter"/>
     </defs>
     <g clip-path="url(#p0c81fd5d77)">
      <use xlink:href="#m59408e16b9" x="341.993768" y="58.13957" style="fill: #eb6834; stroke: #ffffff; stroke-width: 0.6; stroke-linejoin: miter"/>
     </g>
    </g>
    <g id="line2d_41">
     <g clip-path="url(#p0c81fd5d77)">
      <use xlink:href="#m59408e16b9" x="493.089181" y="37.413569" style="fill: #eb6834; stroke: #ffffff; stroke-width: 0.6; stroke-linejoin: miter"/>
     </g>
    </g>
    <g id="line2d_42">
     <g clip-path="url(#p0c81fd5d77)">
      <use xlink:href="#m59408e16b9" x="381.406924" y="16.687569" style="fill: #eb6834; stroke: #ffffff; stroke-width: 0.6; stroke-linejoin: miter"/>
     </g>
    </g>
   </g>
   <g id="text_26">
    <text style="font-weight: 700; font-size: 8px; font-family: 'Arial', 'DejaVu Sans'; text-anchor: start; fill: #111111" x="264.55748" y="5.824219" transform="rotate(-0 264.55748 5.824219)">b</text>
   </g>
   <g id="legend_1">
    <g id="line2d_43">
     <defs>
      <path id="mc64a5a1120" d="M 0 2.2 
C 0.583447 2.2 1.143076 1.968194 1.555635 1.555635 
C 1.968194 1.143076 2.2 0.583447 2.2 0 
C 2.2 -0.583447 1.968194 -1.143076 1.555635 -1.555635 
C 1.143076 -1.968194 0.583447 -2.2 0 -2.2 
C -0.583447 -2.2 -1.143076 -1.968194 -1.555635 -1.555635 
C -1.968194 -1.143076 -2.2 -0.583447 -2.2 0 
C -2.2 0.583447 -1.968194 1.143076 -1.555635 1.555635 
C -1.143076 1.968194 -0.583447 2.2 0 2.2 
z
" style="stroke: #ffffff; stroke-width: 0.6"/>
     </defs>
     <g>
      <use xlink:href="#mc64a5a1120" x="328.856006" y="106.499571" style="fill: #2a78d6; stroke: #ffffff; stroke-width: 0.6"/>
     </g>
    </g>
    <g id="text_27">
     <text style="font-size: 6px; font-family: 'Arial', 'DejaVu Sans'; text-anchor: start; fill: #111111" x="335.456006" y="108.599571" transform="rotate(-0 335.456006 108.599571)">Mean-value decision</text>
    </g>
    <g id="line2d_44">
     <defs>
      <path id="mc29a408f0d" d="M -2.2 2.2 
L 2.2 2.2 
L 2.2 -2.2 
L -2.2 -2.2 
z
" style="stroke: #ffffff; stroke-width: 0.6; stroke-linejoin: miter"/>
     </defs>
     <g>
      <use xlink:href="#mc29a408f0d" x="400.683506" y="106.499571" style="fill: #eb6834; stroke: #ffffff; stroke-width: 0.6; stroke-linejoin: miter"/>
     </g>
    </g>
    <g id="text_28">
     <text style="font-size: 6px; font-family: 'Arial', 'DejaVu Sans'; text-anchor: start; fill: #111111" x="407.283506" y="108.599571" transform="rotate(-0 407.283506 108.599571)">Stochastic decision</text>
    </g>
   </g>
  </g>
  <g id="subfigure_3">
   <g id="patch_8">
    <path d="M 0 261.040927 
L 254.182677 261.040927 
L 254.182677 119.213094 
L 0 119.213094 
L 0 261.040927 
z
" style="fill: none"/>
   </g>
   <g id="axes_3">
    <g id="patch_9">
     <path d="M 50.615406 218.15385 
L 249.930709 218.15385 
L 249.930709 123.465062 
L 50.615406 123.465062 
z
" style="fill: #ffffff"/>
    </g>
    <g id="line2d_45">
     <path d="M 163.727889 218.15385 
L 163.727889 123.465062 
" clip-path="url(#pf25ceefb33)" style="fill: none; stroke: #3a3a38; stroke-width: 0.5; stroke-linecap: round"/>
    </g>
    <g id="FillBetweenPolyCollection_1">
     <defs>
      <path id="md181db60be" d="M 78.088147 -226.923327 
L 78.088147 -226.685161 
L 79.079654 -226.685161 
L 80.071161 -226.685161 
L 81.062667 -226.685161 
L 82.054174 -226.685161 
L 83.045681 -226.685161 
L 84.037187 -226.685161 
L 85.028694 -226.685161 
L 86.020201 -226.685161 
L 87.011707 -226.685161 
L 88.003214 -226.685161 
L 88.994721 -226.685161 
L 89.986227 -226.685161 
L 90.977734 -226.685161 
L 91.969241 -226.685161 
L 92.960747 -226.685161 
L 93.952254 -226.685161 
L 94.943761 -226.685161 
L 95.935267 -226.685161 
L 96.926774 -226.685161 
L 97.918281 -226.685161 
L 98.909787 -226.685161 
L 99.901294 -226.685161 
L 100.892801 -226.685161 
L 101.884307 -226.685161 
L 102.875814 -226.685161 
L 103.867321 -226.685161 
L 104.858827 -226.685161 
L 105.850334 -226.685161 
L 106.841841 -226.685161 
L 107.833347 -226.685161 
L 108.824854 -226.685161 
L 109.816361 -226.685161 
L 110.807867 -226.685161 
L 111.799374 -226.685161 
L 112.790881 -226.685161 
L 113.782387 -226.685161 
L 114.773894 -226.685161 
L 115.765401 -226.685161 
L 116.756908 -226.685161 
L 117.748414 -226.685161 
L 118.739921 -226.685161 
L 119.731428 -226.685161 
L 120.722934 -226.685161 
L 121.714441 -226.685161 
L 122.705948 -226.685161 
L 123.697454 -226.685161 
L 124.688961 -226.685161 
L 125.680468 -226.685161 
L 126.671974 -226.685161 
L 127.663481 -226.685161 
L 128.654988 -226.685161 
L 129.646494 -226.685161 
L 130.638001 -226.685161 
L 131.629508 -226.685161 
L 132.621014 -226.685161 
L 133.612521 -226.685161 
L 134.604028 -226.685161 
L 135.595534 -226.685161 
L 136.587041 -226.685161 
L 137.578548 -226.685161 
L 138.570054 -226.685161 
L 139.561561 -226.685161 
L 140.553068 -226.685161 
L 141.544574 -226.685161 
L 142.536081 -226.685161 
L 143.527588 -226.685161 
L 144.519094 -226.685161 
L 145.510601 -226.685161 
L 146.502108 -226.685161 
L 147.493614 -226.685161 
L 148.485121 -226.685161 
L 149.476628 -226.685161 
L 150.468134 -226.685161 
L 151.459641 -226.685161 
L 152.451148 -226.685161 
L 153.442654 -226.685161 
L 154.434161 -226.685161 
L 155.425668 -226.685161 
L 156.417174 -226.685161 
L 157.408681 -226.685161 
L 158.400188 -226.685161 
L 159.391694 -226.685161 
L 160.383201 -226.685161 
L 161.374708 -226.685161 
L 162.366214 -226.685161 
L 163.357721 -226.685161 
L 164.349228 -226.685161 
L 165.340735 -226.685161 
L 166.332241 -226.685161 
L 167.323748 -226.685161 
L 168.315255 -226.685161 
L 169.306761 -226.685161 
L 170.298268 -226.685161 
L 171.289775 -226.685161 
L 172.281281 -226.685161 
L 173.272788 -226.685161 
L 174.264295 -226.685161 
L 175.255801 -226.685161 
L 176.247308 -226.685161 
L 177.238815 -226.685161 
L 178.230321 -226.685161 
L 179.221828 -226.685161 
L 180.213335 -226.685161 
L 181.204841 -226.685161 
L 182.196348 -226.685161 
L 183.187855 -226.685161 
L 184.179361 -226.685161 
L 185.170868 -226.685161 
L 186.162375 -226.685161 
L 187.153881 -226.685161 
L 188.145388 -226.685161 
L 189.136895 -226.685161 
L 190.128401 -226.685161 
L 191.119908 -226.685161 
L 192.111415 -226.685161 
L 193.102921 -226.685161 
L 194.094428 -226.685161 
L 195.085935 -226.685161 
L 196.077441 -226.685161 
L 197.068948 -226.685161 
L 198.060455 -226.685161 
L 199.051961 -226.685161 
L 200.043468 -226.685161 
L 201.034975 -226.685161 
L 202.026481 -226.685161 
L 203.017988 -226.685161 
L 204.009495 -226.685161 
L 205.001001 -226.685161 
L 205.992508 -226.685161 
L 206.984015 -226.685161 
L 207.975521 -226.685161 
L 208.967028 -226.685161 
L 209.958535 -226.685161 
L 210.950041 -226.685161 
L 211.941548 -226.685161 
L 212.933055 -226.685161 
L 213.924561 -226.685161 
L 214.916068 -226.685161 
L 215.907575 -226.685161 
L 216.899082 -226.685161 
L 217.890588 -226.685161 
L 218.882095 -226.685161 
L 219.873602 -226.685161 
L 220.865108 -226.685161 
L 221.856615 -226.685161 
L 222.848122 -226.685161 
L 223.839628 -226.685161 
L 224.831135 -226.685161 
L 225.822642 -226.685161 
L 226.814148 -226.685161 
L 227.805655 -226.685161 
L 228.797162 -226.685161 
L 229.788668 -226.685161 
L 230.780175 -226.685161 
L 231.771682 -226.685161 
L 232.763188 -226.685161 
L 233.754695 -226.685161 
L 234.746202 -226.685161 
L 235.737708 -226.685161 
L 235.737708 -227.224534 
L 235.737708 -227.224534 
L 234.746202 -227.276969 
L 233.754695 -227.332533 
L 232.763188 -227.391411 
L 231.771682 -227.453834 
L 230.780175 -227.52008 
L 229.788668 -227.590475 
L 228.797162 -227.665389 
L 227.805655 -227.745238 
L 226.814148 -227.830469 
L 225.822642 -227.921559 
L 224.831135 -228.018999 
L 223.839628 -228.123283 
L 222.848122 -228.234889 
L 221.856615 -228.354264 
L 220.865108 -228.481803 
L 219.873602 -228.617831 
L 218.882095 -228.762584 
L 217.890588 -228.916188 
L 216.899082 -229.078645 
L 215.907575 -229.249813 
L 214.916068 -229.429402 
L 213.924561 -229.616961 
L 212.933055 -229.811881 
L 211.941548 -230.013393 
L 210.950041 -230.220587 
L 209.958535 -230.43242 
L 208.967028 -230.647748 
L 207.975521 -230.865352 
L 206.984015 -231.083973 
L 205.992508 -231.302353 
L 205.001001 -231.519279 
L 204.009495 -231.733622 
L 203.017988 -231.944378 
L 202.026481 -232.150705 
L 201.034975 -232.351948 
L 200.043468 -232.547659 
L 199.051961 -232.737607 
L 198.060455 -232.921766 
L 197.068948 -233.100308 
L 196.077441 -233.273566 
L 195.085935 -233.442001 
L 194.094428 -233.606158 
L 193.102921 -233.766617 
L 192.111415 -233.923944 
L 191.119908 -234.078653 
L 190.128401 -234.231167 
L 189.136895 -234.381794 
L 188.145388 -234.530717 
L 187.153881 -234.677991 
L 186.162375 -234.823559 
L 185.170868 -234.967276 
L 184.179361 -235.108941 
L 183.187855 -235.248331 
L 182.196348 -235.385239 
L 181.204841 -235.519507 
L 180.213335 -235.651047 
L 179.221828 -235.779854 
L 178.230321 -235.90601 
L 177.238815 -236.029664 
L 176.247308 -236.151006 
L 175.255801 -236.270234 
L 174.264295 -236.387497 
L 173.272788 -236.502856 
L 172.281281 -236.616223 
L 171.289775 -236.727327 
L 170.298268 -236.835671 
L 169.306761 -236.940515 
L 168.315255 -237.040872 
L 167.323748 -237.13552 
L 166.332241 -237.22303 
L 165.340735 -237.301819 
L 164.349228 -237.370206 
L 163.357721 -237.426483 
L 162.366214 -237.468989 
L 161.374708 -237.496189 
L 160.383201 -237.506737 
L 159.391694 -237.499539 
L 158.400188 -237.473799 
L 157.408681 -237.429051 
L 156.417174 -237.365165 
L 155.425668 -237.282351 
L 154.434161 -237.181129 
L 153.442654 -237.062305 
L 152.451148 -236.92692 
L 151.459641 -236.7762 
L 150.468134 -236.611512 
L 149.476628 -236.434306 
L 148.485121 -236.246075 
L 147.493614 -236.048322 
L 146.502108 -235.842527 
L 145.510601 -235.630133 
L 144.519094 -235.412541 
L 143.527588 -235.191101 
L 142.536081 -234.96712 
L 141.544574 -234.741864 
L 140.553068 -234.516561 
L 139.561561 -234.292397 
L 138.570054 -234.070512 
L 137.578548 -233.851982 
L 136.587041 -233.637795 
L 135.595534 -233.428828 
L 134.604028 -233.225805 
L 133.612521 -233.029272 
L 132.621014 -232.839558 
L 131.629508 -232.65675 
L 130.638001 -232.48068 
L 129.646494 -232.310915 
L 128.654988 -232.146769 
L 127.663481 -231.987329 
L 126.671974 -231.831495 
L 125.680468 -231.678035 
L 124.688961 -231.52565 
L 123.697454 -231.373043 
L 122.705948 -231.219003 
L 121.714441 -231.062466 
L 120.722934 -230.902589 
L 119.731428 -230.738801 
L 118.739921 -230.57084 
L 117.748414 -230.398776 
L 116.756908 -230.223007 
L 115.765401 -230.044247 
L 114.773894 -229.863485 
L 113.782387 -229.681935 
L 112.790881 -229.500973 
L 111.799374 -229.322065 
L 110.807867 -229.146694 
L 109.816361 -228.976288 
L 108.824854 -228.812157 
L 107.833347 -228.655433 
L 106.841841 -228.507034 
L 105.850334 -228.36763 
L 104.858827 -228.237636 
L 103.867321 -228.117214 
L 102.875814 -228.00629 
L 101.884307 -227.904582 
L 100.892801 -227.811638 
L 99.901294 -227.726879 
L 98.909787 -227.649643 
L 97.918281 -227.57923 
L 96.926774 -227.514938 
L 95.935267 -227.456101 
L 94.943761 -227.402109 
L 93.952254 -227.352429 
L 92.960747 -227.306608 
L 91.969241 -227.264277 
L 90.977734 -227.22514 
L 89.986227 -227.188963 
L 88.994721 -227.155558 
L 88.003214 -227.124767 
L 87.011707 -227.096444 
L 86.020201 -227.070443 
L 85.028694 -227.046604 
L 84.037187 -227.02475 
L 83.045681 -227.004684 
L 82.054174 -226.986189 
L 81.062667 -226.969036 
L 80.071161 -226.952992 
L 79.079654 -226.937827 
L 78.088147 -226.923327 
z
"/>
     </defs>
     <g clip-path="url(#pf25ceefb33)">
      <use xlink:href="#md181db60be" x="0" y="431.312041" style="fill: #cfe0f5"/>
     </g>
    </g>
    <g id="FillBetweenPolyCollection_2">
     <defs>
      <path id="m1ba4595f76" d="M 89.290438 -257.752054 
L 89.290438 -256.745093 
L 90.243774 -256.745093 
L 91.19711 -256.745093 
L 92.150447 -256.745093 
L 93.103783 -256.745093 
L 94.05712 -256.745093 
L 95.010456 -256.745093 
L 95.963792 -256.745093 
L 96.917129 -256.745093 
L 97.870465 -256.745093 
L 98.823801 -256.745093 
L 99.777138 -256.745093 
L 100.730474 -256.745093 
L 101.683811 -256.745093 
L 102.637147 -256.745093 
L 103.590483 -256.745093 
L 104.54382 -256.745093 
L 105.497156 -256.745093 
L 106.450493 -256.745093 
L 107.403829 -256.745093 
L 108.357165 -256.745093 
L 109.310502 -256.745093 
L 110.263838 -256.745093 
L 111.217174 -256.745093 
L 112.170511 -256.745093 
L 113.123847 -256.745093 
L 114.077184 -256.745093 
L 115.03052 -256.745093 
L 115.983856 -256.745093 
L 116.937193 -256.745093 
L 117.890529 -256.745093 
L 118.843865 -256.745093 
L 119.797202 -256.745093 
L 120.750538 -256.745093 
L 121.703875 -256.745093 
L 122.657211 -256.745093 
L 123.610547 -256.745093 
L 124.563884 -256.745093 
L 125.51722 -256.745093 
L 126.470557 -256.745093 
L 127.423893 -256.745093 
L 128.377229 -256.745093 
L 129.330566 -256.745093 
L 130.283902 -256.745093 
L 131.237238 -256.745093 
L 132.190575 -256.745093 
L 133.143911 -256.745093 
L 134.097248 -256.745093 
L 135.050584 -256.745093 
L 136.00392 -256.745093 
L 136.957257 -256.745093 
L 137.910593 -256.745093 
L 138.863929 -256.745093 
L 139.817266 -256.745093 
L 140.770602 -256.745093 
L 141.723939 -256.745093 
L 142.677275 -256.745093 
L 143.630611 -256.745093 
L 144.583948 -256.745093 
L 145.537284 -256.745093 
L 146.490621 -256.745093 
L 147.443957 -256.745093 
L 148.397293 -256.745093 
L 149.35063 -256.745093 
L 150.303966 -256.745093 
L 151.257302 -256.745093 
L 152.210639 -256.745093 
L 153.163975 -256.745093 
L 154.117312 -256.745093 
L 155.070648 -256.745093 
L 156.023984 -256.745093 
L 156.977321 -256.745093 
L 157.930657 -256.745093 
L 158.883993 -256.745093 
L 159.83733 -256.745093 
L 160.790666 -256.745093 
L 161.744003 -256.745093 
L 162.697339 -256.745093 
L 163.650675 -256.745093 
L 164.604012 -256.745093 
L 165.557348 -256.745093 
L 166.510684 -256.745093 
L 167.464021 -256.745093 
L 168.417357 -256.745093 
L 169.370694 -256.745093 
L 170.32403 -256.745093 
L 171.277366 -256.745093 
L 172.230703 -256.745093 
L 173.184039 -256.745093 
L 174.137376 -256.745093 
L 175.090712 -256.745093 
L 176.044048 -256.745093 
L 176.997385 -256.745093 
L 177.950721 -256.745093 
L 178.904057 -256.745093 
L 179.857394 -256.745093 
L 180.81073 -256.745093 
L 181.764067 -256.745093 
L 182.717403 -256.745093 
L 183.670739 -256.745093 
L 184.624076 -256.745093 
L 185.577412 -256.745093 
L 186.530748 -256.745093 
L 187.484085 -256.745093 
L 188.437421 -256.745093 
L 189.390758 -256.745093 
L 190.344094 -256.745093 
L 191.29743 -256.745093 
L 192.250767 -256.745093 
L 193.204103 -256.745093 
L 194.15744 -256.745093 
L 195.110776 -256.745093 
L 196.064112 -256.745093 
L 197.017449 -256.745093 
L 197.970785 -256.745093 
L 198.924121 -256.745093 
L 199.877458 -256.745093 
L 200.830794 -256.745093 
L 201.784131 -256.745093 
L 202.737467 -256.745093 
L 203.690803 -256.745093 
L 204.64414 -256.745093 
L 205.597476 -256.745093 
L 206.550812 -256.745093 
L 207.504149 -256.745093 
L 208.457485 -256.745093 
L 209.410822 -256.745093 
L 210.364158 -256.745093 
L 211.317494 -256.745093 
L 212.270831 -256.745093 
L 213.224167 -256.745093 
L 214.177504 -256.745093 
L 215.13084 -256.745093 
L 216.084176 -256.745093 
L 217.037513 -256.745093 
L 217.990849 -256.745093 
L 218.944185 -256.745093 
L 219.897522 -256.745093 
L 220.850858 -256.745093 
L 221.804195 -256.745093 
L 222.757531 -256.745093 
L 223.710867 -256.745093 
L 224.664204 -256.745093 
L 225.61754 -256.745093 
L 226.570876 -256.745093 
L 227.524213 -256.745093 
L 228.477549 -256.745093 
L 229.430886 -256.745093 
L 230.384222 -256.745093 
L 231.337558 -256.745093 
L 232.290895 -256.745093 
L 233.244231 -256.745093 
L 234.197568 -256.745093 
L 235.150904 -256.745093 
L 236.10424 -256.745093 
L 237.057577 -256.745093 
L 238.010913 -256.745093 
L 238.964249 -256.745093 
L 239.917586 -256.745093 
L 240.870922 -256.745093 
L 240.870922 -257.298283 
L 240.870922 -257.298283 
L 239.917586 -257.328982 
L 238.964249 -257.359767 
L 238.010913 -257.390906 
L 237.057577 -257.422769 
L 236.10424 -257.455818 
L 235.150904 -257.490607 
L 234.197568 -257.527766 
L 233.244231 -257.567993 
L 232.290895 -257.612031 
L 231.337558 -257.66065 
L 230.384222 -257.714627 
L 229.430886 -257.774722 
L 228.477549 -257.841654 
L 227.524213 -257.916083 
L 226.570876 -257.998587 
L 225.61754 -258.089646 
L 224.664204 -258.189626 
L 223.710867 -258.29877 
L 222.757531 -258.417191 
L 221.804195 -258.544867 
L 220.850858 -258.681647 
L 219.897522 -258.827252 
L 218.944185 -258.981288 
L 217.990849 -259.143258 
L 217.037513 -259.312583 
L 216.084176 -259.488613 
L 215.13084 -259.670657 
L 214.177504 -259.858003 
L 213.224167 -260.049938 
L 212.270831 -260.245776 
L 211.317494 -260.444875 
L 210.364158 -260.646656 
L 209.410822 -260.850621 
L 208.457485 -261.056361 
L 207.504149 -261.263565 
L 206.550812 -261.472017 
L 205.597476 -261.681596 
L 204.64414 -261.892263 
L 203.690803 -262.104047 
L 202.737467 -262.317027 
L 201.784131 -262.531307 
L 200.830794 -262.746993 
L 199.877458 -262.964167 
L 198.924121 -263.182861 
L 197.970785 -263.403032 
L 197.017449 -263.624547 
L 196.064112 -263.847163 
L 195.110776 -264.070515 
L 194.15744 -264.294116 
L 193.204103 -264.517356 
L 192.250767 -264.739506 
L 191.29743 -264.959734 
L 190.344094 -265.177122 
L 189.390758 -265.390684 
L 188.437421 -265.599387 
L 187.484085 -265.802181 
L 186.530748 -265.998013 
L 185.577412 -266.185857 
L 184.624076 -266.364728 
L 183.670739 -266.533701 
L 182.717403 -266.691921 
L 181.764067 -266.838618 
L 180.81073 -266.973105 
L 179.857394 -267.094791 
L 178.904057 -267.203174 
L 177.950721 -267.297846 
L 176.997385 -267.37849 
L 176.044048 -267.444882 
L 175.090712 -267.496888 
L 174.137376 -267.534469 
L 173.184039 -267.557679 
L 172.230703 -267.566669 
L 171.277366 -267.561693 
L 170.32403 -267.543106 
L 169.370694 -267.511368 
L 168.417357 -267.467042 
L 167.464021 -267.410789 
L 166.510684 -267.343365 
L 165.557348 -267.265603 
L 164.604012 -267.178403 
L 163.650675 -267.082709 
L 162.697339 -266.979492 
L 161.744003 -266.869723 
L 160.790666 -266.754351 
L 159.83733 -266.634281 
L 158.883993 -266.51035 
L 157.930657 -266.383314 
L 156.977321 -266.253835 
L 156.023984 -266.122477 
L 155.070648 -265.9897 
L 154.117312 -265.855873 
L 153.163975 -265.721281 
L 152.210639 -265.586141 
L 151.257302 -265.450619 
L 150.303966 -265.314854 
L 149.35063 -265.178973 
L 148.397293 -265.04311 
L 147.443957 -264.907422 
L 146.490621 -264.772097 
L 145.537284 -264.637358 
L 144.583948 -264.503462 
L 143.630611 -264.370693 
L 142.677275 -264.23935 
L 141.723939 -264.10973 
L 140.770602 -263.982107 
L 139.817266 -263.856711 
L 138.863929 -263.733709 
L 137.910593 -263.613183 
L 136.957257 -263.495116 
L 136.00392 -263.379378 
L 135.050584 -263.265722 
L 134.097248 -263.153788 
L 133.143911 -263.043103 
L 132.190575 -262.933104 
L 131.237238 -262.82315 
L 130.283902 -262.712555 
L 129.330566 -262.600609 
L 128.377229 -262.486615 
L 127.423893 -262.369917 
L 126.470557 -262.249935 
L 125.51722 -262.126186 
L 124.563884 -261.998314 
L 123.610547 -261.866103 
L 122.657211 -261.729495 
L 121.703875 -261.58859 
L 120.750538 -261.443649 
L 119.797202 -261.295082 
L 118.843865 -261.143439 
L 117.890529 -260.989387 
L 116.937193 -260.83369 
L 115.983856 -260.677181 
L 115.03052 -260.520734 
L 114.077184 -260.365237 
L 113.123847 -260.211564 
L 112.170511 -260.060546 
L 111.217174 -259.912951 
L 110.263838 -259.769463 
L 109.310502 -259.630663 
L 108.357165 -259.49702 
L 107.403829 -259.368877 
L 106.450493 -259.246457 
L 105.497156 -259.129852 
L 104.54382 -259.019036 
L 103.590483 -258.91387 
L 102.637147 -258.814113 
L 101.683811 -258.719437 
L 100.730474 -258.629443 
L 99.777138 -258.543681 
L 98.823801 -258.461664 
L 97.870465 -258.382894 
L 96.917129 -258.306875 
L 95.963792 -258.233135 
L 95.010456 -258.161238 
L 94.05712 -258.090803 
L 93.103783 -258.021512 
L 92.150447 -257.953119 
L 91.19711 -257.885458 
L 90.243774 -257.81844 
L 89.290438 -257.752054 
z
"/>
     </defs>
     <g clip-path="url(#pf25ceefb33)">
      <use xlink:href="#m1ba4595f76" x="0" y="431.312041" style="fill: #cfe0f5"/>
     </g>
    </g>
    <g id="FillBetweenPolyCollection_3">
     <defs>
      <path id="m9de8d2f3eb" d="M 59.675192 -287.135159 
L 59.675192 -286.805026 
L 60.806047 -286.805026 
L 61.936902 -286.805026 
L 63.067756 -286.805026 
L 64.198611 -286.805026 
L 65.329465 -286.805026 
L 66.46032 -286.805026 
L 67.591174 -286.805026 
L 68.722029 -286.805026 
L 69.852883 -286.805026 
L 70.983738 -286.805026 
L 72.114592 -286.805026 
L 73.245447 -286.805026 
L 74.376301 -286.805026 
L 75.507156 -286.805026 
L 76.63801 -286.805026 
L 77.768865 -286.805026 
L 78.899719 -286.805026 
L 80.030574 -286.805026 
L 81.161428 -286.805026 
L 82.292283 -286.805026 
L 83.423137 -286.805026 
L 84.553992 -286.805026 
L 85.684846 -286.805026 
L 86.815701 -286.805026 
L 87.946555 -286.805026 
L 89.07741 -286.805026 
L 90.208265 -286.805026 
L 91.339119 -286.805026 
L 92.469974 -286.805026 
L 93.600828 -286.805026 
L 94.731683 -286.805026 
L 95.862537 -286.805026 
L 96.993392 -286.805026 
L 98.124246 -286.805026 
L 99.255101 -286.805026 
L 100.385955 -286.805026 
L 101.51681 -286.805026 
L 102.647664 -286.805026 
L 103.778519 -286.805026 
L 104.909373 -286.805026 
L 106.040228 -286.805026 
L 107.171082 -286.805026 
L 108.301937 -286.805026 
L 109.432791 -286.805026 
L 110.563646 -286.805026 
L 111.6945 -286.805026 
L 112.825355 -286.805026 
L 113.956209 -286.805026 
L 115.087064 -286.805026 
L 116.217918 -286.805026 
L 117.348773 -286.805026 
L 118.479628 -286.805026 
L 119.610482 -286.805026 
L 120.741337 -286.805026 
L 121.872191 -286.805026 
L 123.003046 -286.805026 
L 124.1339 -286.805026 
L 125.264755 -286.805026 
L 126.395609 -286.805026 
L 127.526464 -286.805026 
L 128.657318 -286.805026 
L 129.788173 -286.805026 
L 130.919027 -286.805026 
L 132.049882 -286.805026 
L 133.180736 -286.805026 
L 134.311591 -286.805026 
L 135.442445 -286.805026 
L 136.5733 -286.805026 
L 137.704154 -286.805026 
L 138.835009 -286.805026 
L 139.965863 -286.805026 
L 141.096718 -286.805026 
L 142.227572 -286.805026 
L 143.358427 -286.805026 
L 144.489281 -286.805026 
L 145.620136 -286.805026 
L 146.750991 -286.805026 
L 147.881845 -286.805026 
L 149.0127 -286.805026 
L 150.143554 -286.805026 
L 151.274409 -286.805026 
L 152.405263 -286.805026 
L 153.536118 -286.805026 
L 154.666972 -286.805026 
L 155.797827 -286.805026 
L 156.928681 -286.805026 
L 158.059536 -286.805026 
L 159.19039 -286.805026 
L 160.321245 -286.805026 
L 161.452099 -286.805026 
L 162.582954 -286.805026 
L 163.713808 -286.805026 
L 164.844663 -286.805026 
L 165.975517 -286.805026 
L 167.106372 -286.805026 
L 168.237226 -286.805026 
L 169.368081 -286.805026 
L 170.498935 -286.805026 
L 171.62979 -286.805026 
L 172.760644 -286.805026 
L 173.891499 -286.805026 
L 175.022354 -286.805026 
L 176.153208 -286.805026 
L 177.284063 -286.805026 
L 178.414917 -286.805026 
L 179.545772 -286.805026 
L 180.676626 -286.805026 
L 181.807481 -286.805026 
L 182.938335 -286.805026 
L 184.06919 -286.805026 
L 185.200044 -286.805026 
L 186.330899 -286.805026 
L 187.461753 -286.805026 
L 188.592608 -286.805026 
L 189.723462 -286.805026 
L 190.854317 -286.805026 
L 191.985171 -286.805026 
L 193.116026 -286.805026 
L 194.24688 -286.805026 
L 195.377735 -286.805026 
L 196.508589 -286.805026 
L 197.639444 -286.805026 
L 198.770298 -286.805026 
L 199.901153 -286.805026 
L 201.032007 -286.805026 
L 202.162862 -286.805026 
L 203.293717 -286.805026 
L 204.424571 -286.805026 
L 205.555426 -286.805026 
L 206.68628 -286.805026 
L 207.817135 -286.805026 
L 208.947989 -286.805026 
L 210.078844 -286.805026 
L 211.209698 -286.805026 
L 212.340553 -286.805026 
L 213.471407 -286.805026 
L 214.602262 -286.805026 
L 215.733116 -286.805026 
L 216.863971 -286.805026 
L 217.994825 -286.805026 
L 219.12568 -286.805026 
L 220.256534 -286.805026 
L 221.387389 -286.805026 
L 222.518243 -286.805026 
L 223.649098 -286.805026 
L 224.779952 -286.805026 
L 225.910807 -286.805026 
L 227.041661 -286.805026 
L 228.172516 -286.805026 
L 229.30337 -286.805026 
L 230.434225 -286.805026 
L 231.565079 -286.805026 
L 232.695934 -286.805026 
L 233.826789 -286.805026 
L 234.957643 -286.805026 
L 236.088498 -286.805026 
L 237.219352 -286.805026 
L 238.350207 -286.805026 
L 239.481061 -286.805026 
L 239.481061 -287.347796 
L 239.481061 -287.347796 
L 238.350207 -287.411493 
L 237.219352 -287.480947 
L 236.088498 -287.5566 
L 234.957643 -287.638918 
L 233.826789 -287.728393 
L 232.695934 -287.825533 
L 231.565079 -287.930859 
L 230.434225 -288.04489 
L 229.30337 -288.168137 
L 228.172516 -288.301084 
L 227.041661 -288.444167 
L 225.910807 -288.597754 
L 224.779952 -288.762119 
L 223.649098 -288.937415 
L 222.518243 -289.123646 
L 221.387389 -289.320644 
L 220.256534 -289.528045 
L 219.12568 -289.745275 
L 217.994825 -289.971541 
L 216.863971 -290.205832 
L 215.733116 -290.446928 
L 214.602262 -290.693424 
L 213.471407 -290.943755 
L 212.340553 -291.196241 
L 211.209698 -291.449127 
L 210.078844 -291.700634 
L 208.947989 -291.949013 
L 207.817135 -292.192596 
L 206.68628 -292.429847 
L 205.555426 -292.659409 
L 204.424571 -292.880144 
L 203.293717 -293.091169 
L 202.162862 -293.291882 
L 201.032007 -293.481981 
L 199.901153 -293.661471 
L 198.770298 -293.830659 
L 197.639444 -293.990147 
L 196.508589 -294.140797 
L 195.377735 -294.283701 
L 194.24688 -294.420128 
L 193.116026 -294.551463 
L 191.985171 -294.679143 
L 190.854317 -294.804579 
L 189.723462 -294.929084 
L 188.592608 -295.0538 
L 187.461753 -295.179631 
L 186.330899 -295.307192 
L 185.200044 -295.43677 
L 184.06919 -295.568309 
L 182.938335 -295.701408 
L 181.807481 -295.835352 
L 180.676626 -295.969152 
L 179.545772 -296.101609 
L 178.414917 -296.231392 
L 177.284063 -296.357121 
L 176.153208 -296.477456 
L 175.022354 -296.591181 
L 173.891499 -296.697282 
L 172.760644 -296.79501 
L 171.62979 -296.883926 
L 170.498935 -296.963929 
L 169.368081 -297.03526 
L 168.237226 -297.098479 
L 167.106372 -297.154431 
L 165.975517 -297.204181 
L 164.844663 -297.24894 
L 163.713808 -297.289969 
L 162.582954 -297.328484 
L 161.452099 -297.365549 
L 160.321245 -297.401975 
L 159.19039 -297.438226 
L 158.059536 -297.474336 
L 156.928681 -297.509853 
L 155.797827 -297.543802 
L 154.666972 -297.574675 
L 153.536118 -297.600464 
L 152.405263 -297.618711 
L 151.274409 -297.626602 
L 150.143554 -297.621082 
L 149.0127 -297.598996 
L 147.881845 -297.557238 
L 146.750991 -297.492912 
L 145.620136 -297.403486 
L 144.489281 -297.286931 
L 143.358427 -297.141838 
L 142.227572 -296.9675 
L 141.096718 -296.763962 
L 139.965863 -296.53203 
L 138.835009 -296.27324 
L 137.704154 -295.98979 
L 136.5733 -295.684442 
L 135.442445 -295.360404 
L 134.311591 -295.021192 
L 133.180736 -294.67049 
L 132.049882 -294.312018 
L 130.919027 -293.949405 
L 129.788173 -293.586082 
L 128.657318 -293.225207 
L 127.526464 -292.869598 
L 126.395609 -292.521703 
L 125.264755 -292.183587 
L 124.1339 -291.856934 
L 123.003046 -291.543072 
L 121.872191 -291.242993 
L 120.741337 -290.957394 
L 119.610482 -290.686706 
L 118.479628 -290.43113 
L 117.348773 -290.190666 
L 116.217918 -289.965136 
L 115.087064 -289.75421 
L 113.956209 -289.557426 
L 112.825355 -289.374204 
L 111.6945 -289.203871 
L 110.563646 -289.045674 
L 109.432791 -288.898805 
L 108.301937 -288.76242 
L 107.171082 -288.635665 
L 106.040228 -288.517697 
L 104.909373 -288.407711 
L 103.778519 -288.304957 
L 102.647664 -288.208761 
L 101.51681 -288.118533 
L 100.385955 -288.033782 
L 99.255101 -287.954112 
L 98.124246 -287.879224 
L 96.993392 -287.808902 
L 95.862537 -287.743008 
L 94.731683 -287.681461 
L 93.600828 -287.624222 
L 92.469974 -287.571278 
L 91.339119 -287.522623 
L 90.208265 -287.478245 
L 89.07741 -287.438112 
L 87.946555 -287.402166 
L 86.815701 -287.37031 
L 85.684846 -287.342412 
L 84.553992 -287.318299 
L 83.423137 -287.297761 
L 82.292283 -287.280552 
L 81.161428 -287.266395 
L 80.030574 -287.254988 
L 78.899719 -287.246004 
L 77.768865 -287.2391 
L 76.63801 -287.233917 
L 75.507156 -287.230089 
L 74.376301 -287.227244 
L 73.245447 -287.225007 
L 72.114592 -287.22301 
L 70.983738 -287.220892 
L 69.852883 -287.21831 
L 68.722029 -287.214944 
L 67.591174 -287.210506 
L 66.46032 -287.204746 
L 65.329465 -287.197463 
L 64.198611 -287.188508 
L 63.067756 -287.177793 
L 61.936902 -287.165293 
L 60.806047 -287.151047 
L 59.675192 -287.135159 
z
"/>
     </defs>
     <g clip-path="url(#pf25ceefb33)">
      <use xlink:href="#m9de8d2f3eb" x="0" y="431.312041" style="fill: #cfe0f5"/>
     </g>
    </g>
    <g id="matplotlib.axis_5">
     <g id="xtick_10">
      <g id="line2d_46">
       <g>
        <use xlink:href="#m2d55354cb6" x="84.035322" y="218.15385" style="fill: #3a3a38; stroke: #3a3a38; stroke-width: 0.5"/>
       </g>
      </g>
      <g id="text_29">
       <text style="font-size: 6px; font-family: 'Arial', 'DejaVu Sans'; text-anchor: middle; fill: #111111" x="84.035322" y="227.022014" transform="rotate(-0 84.035322 227.022014)">0.6</text>
      </g>
     </g>
     <g id="xtick_11">
      <g id="line2d_47">
       <g>
        <use xlink:href="#m2d55354cb6" x="123.881605" y="218.15385" style="fill: #3a3a38; stroke: #3a3a38; stroke-width: 0.5"/>
       </g>
      </g>
      <g id="text_30">
       <text style="font-size: 6px; font-family: 'Arial', 'DejaVu Sans'; text-anchor: middle; fill: #111111" x="123.881605" y="227.022014" transform="rotate(-0 123.881605 227.022014)">0.8</text>
      </g>
     </g>
     <g id="xtick_12">
      <g id="line2d_48">
       <g>
        <use xlink:href="#m2d55354cb6" x="163.727889" y="218.15385" style="fill: #3a3a38; stroke: #3a3a38; stroke-width: 0.5"/>
       </g>
      </g>
      <g id="text_31">
       <text style="font-size: 6px; font-family: 'Arial', 'DejaVu Sans'; text-anchor: middle; fill: #111111" x="163.727889" y="227.022014" transform="rotate(-0 163.727889 227.022014)">1.0</text>
      </g>
     </g>
     <g id="xtick_13">
      <g id="line2d_49">
       <g>
        <use xlink:href="#m2d55354cb6" x="203.574172" y="218.15385" style="fill: #3a3a38; stroke: #3a3a38; stroke-width: 0.5"/>
       </g>
      </g>
      <g id="text_32">
       <text style="font-size: 6px; font-family: 'Arial', 'DejaVu Sans'; text-anchor: middle; fill: #111111" x="203.574172" y="227.022014" transform="rotate(-0 203.574172 227.022014)">1.2</text>
      </g>
     </g>
     <g id="xtick_14">
      <g id="line2d_50">
       <g>
        <use xlink:href="#m2d55354cb6" x="243.420455" y="218.15385" style="fill: #3a3a38; stroke: #3a3a38; stroke-width: 0.5"/>
       </g>
      </g>
      <g id="text_33">
       <text style="font-size: 6px; font-family: 'Arial', 'DejaVu Sans'; text-anchor: middle; fill: #111111" x="243.420455" y="227.022014" transform="rotate(-0 243.420455 227.022014)">1.4</text>
      </g>
     </g>
     <g id="text_34">
      <text style="font-size: 7px; font-family: 'Arial', 'DejaVu Sans'; text-anchor: middle; fill: #111111" x="150.273057" y="236.380901" transform="rotate(-0 150.273057 236.380901)">Value relative to the mean</text>
     </g>
    </g>
    <g id="matplotlib.axis_6">
     <g id="ytick_8">
      <g id="line2d_51"/>
      <g id="text_35">
       <text style="font-size: 6px; font-family: 'Arial', 'DejaVu Sans'; text-anchor: end; fill: #111111" x="48.615406" y="206.810962" transform="rotate(-0 48.615406 206.810962)">load.night</text>
      </g>
     </g>
     <g id="ytick_9">
      <g id="line2d_52"/>
      <g id="text_36">
       <text style="font-size: 6px; font-family: 'Arial', 'DejaVu Sans'; text-anchor: end; fill: #111111" x="48.615406" y="176.75103" transform="rotate(-0 48.615406 176.75103)">load.day</text>
      </g>
     </g>
     <g id="ytick_10">
      <g id="line2d_53"/>
      <g id="text_37">
       <text style="font-size: 6px; font-family: 'Arial', 'DejaVu Sans'; text-anchor: end; fill: #111111" x="48.615406" y="146.691097" transform="rotate(-0 48.615406 146.691097)">load.peak_hours</text>
      </g>
     </g>
    </g>
    <g id="line2d_54">
     <path d="M 78.088147 204.388714 
L 89.986227 204.123078 
L 97.918281 203.732811 
L 102.875814 203.305751 
L 107.833347 202.656608 
L 114.773894 201.448556 
L 122.705948 200.093038 
L 132.621014 198.472484 
L 138.570054 197.241529 
L 149.476628 194.877735 
L 153.442654 194.249736 
L 157.408681 193.88299 
L 160.383201 193.805304 
L 164.349228 193.941835 
L 169.306761 194.371526 
L 178.230321 195.406031 
L 187.153881 196.63405 
L 197.068948 198.211733 
L 203.017988 199.367663 
L 216.899082 202.233396 
L 221.856615 202.957777 
L 227.805655 203.566804 
L 234.746202 204.035072 
L 235.737708 204.087507 
L 235.737708 204.087507 
" clip-path="url(#pf25ceefb33)" style="fill: none; stroke: #2a78d6; stroke-width: 0.6; stroke-linecap: round"/>
    </g>
    <g id="line2d_55">
     <path d="M 117.757282 207.031675 
L 208.707969 207.031675 
" clip-path="url(#pf25ceefb33)" style="fill: none; stroke: #4d4c48; stroke-width: 0.6"/>
    </g>
    <g id="line2d_56">
     <path d="M 144.22716 207.031675 
L 183.960298 207.031675 
" clip-path="url(#pf25ceefb33)" style="fill: none; stroke: #4d4c48; stroke-width: 2.4"/>
    </g>
    <g id="line2d_57">
     <path d="M 89.290438 173.559987 
L 101.683811 172.592604 
L 107.403829 171.943164 
L 114.077184 170.946804 
L 125.51722 169.185855 
L 136.00392 167.932663 
L 145.537284 166.674683 
L 162.697339 164.332549 
L 167.464021 163.901252 
L 171.277366 163.750348 
L 175.090712 163.815153 
L 178.904057 164.108867 
L 182.717403 164.62012 
L 187.484085 165.50986 
L 195.110776 167.241526 
L 208.457485 170.25568 
L 217.037513 171.999458 
L 221.804195 172.767174 
L 226.570876 173.313454 
L 232.290895 173.70001 
L 240.870922 174.013758 
L 240.870922 174.013758 
" clip-path="url(#pf25ceefb33)" style="fill: none; stroke: #2a78d6; stroke-width: 0.6; stroke-linecap: round"/>
    </g>
    <g id="line2d_58">
     <path d="M 112.233174 176.971742 
L 209.356321 176.971742 
" clip-path="url(#pf25ceefb33)" style="fill: none; stroke: #4d4c48; stroke-width: 0.6"/>
    </g>
    <g id="line2d_59">
     <path d="M 142.616902 176.971742 
L 185.237756 176.971742 
" clip-path="url(#pf25ceefb33)" style="fill: none; stroke: #4d4c48; stroke-width: 2.4"/>
    </g>
    <g id="line2d_60">
     <path d="M 59.675192 144.176883 
L 73.245447 144.087034 
L 85.684846 143.969629 
L 93.600828 143.687819 
L 101.51681 143.193508 
L 108.301937 142.549621 
L 112.825355 141.937837 
L 117.348773 141.121375 
L 121.872191 140.069048 
L 126.395609 138.790338 
L 138.835009 135.038801 
L 142.227572 134.344541 
L 145.620136 133.908555 
L 149.0127 133.713045 
L 153.536118 133.711577 
L 164.844663 134.063102 
L 171.62979 134.428115 
L 177.284063 134.95492 
L 197.639444 137.321895 
L 203.293717 138.220872 
L 208.947989 139.363028 
L 221.387389 141.991397 
L 227.041661 142.867874 
L 232.695934 143.486508 
L 239.481061 143.964245 
L 239.481061 143.964245 
" clip-path="url(#pf25ceefb33)" style="fill: none; stroke: #2a78d6; stroke-width: 0.6; stroke-linecap: round"/>
    </g>
    <g id="line2d_61">
     <path d="M 115.291249 146.91181 
L 211.207956 146.91181 
" clip-path="url(#pf25ceefb33)" style="fill: none; stroke: #4d4c48; stroke-width: 0.6"/>
    </g>
    <g id="line2d_62">
     <path d="M 142.974195 146.91181 
L 185.962778 146.91181 
" clip-path="url(#pf25ceefb33)" style="fill: none; stroke: #4d4c48; stroke-width: 2.4"/>
    </g>
    <g id="patch_10">
     <path d="M 50.615406 218.15385 
L 249.930709 218.15385 
" style="fill: none; stroke: #3a3a38; stroke-width: 0.5; stroke-linejoin: miter; stroke-linecap: square"/>
    </g>
    <g id="line2d_63">
     <defs>
      <path id="mbdeabbf02f" d="M 0 1.5 
C 0.397805 1.5 0.77937 1.341951 1.06066 1.06066 
C 1.341951 0.77937 1.5 0.397805 1.5 0 
C 1.5 -0.397805 1.341951 -0.77937 1.06066 -1.06066 
C 0.77937 -1.341951 0.397805 -1.5 0 -1.5 
C -0.397805 -1.5 -0.77937 -1.341951 -1.06066 -1.06066 
C -1.341951 -0.77937 -1.5 -0.397805 -1.5 0 
C -1.5 0.397805 -1.341951 0.77937 -1.06066 1.06066 
C -0.77937 1.341951 -0.397805 1.5 0 1.5 
z
" style="stroke: #4d4c48; stroke-width: 0.5"/>
     </defs>
     <g clip-path="url(#pf25ceefb33)">
      <use xlink:href="#mbdeabbf02f" x="162.656234" y="207.031675" style="fill: #ffffff; stroke: #4d4c48; stroke-width: 0.5"/>
     </g>
    </g>
    <g id="line2d_64">
     <g clip-path="url(#pf25ceefb33)">
      <use xlink:href="#mbdeabbf02f" x="166.231919" y="176.971742" style="fill: #ffffff; stroke: #4d4c48; stroke-width: 0.5"/>
     </g>
    </g>
    <g id="line2d_65">
     <g clip-path="url(#pf25ceefb33)">
      <use xlink:href="#mbdeabbf02f" x="164.114835" y="146.91181" style="fill: #ffffff; stroke: #4d4c48; stroke-width: 0.5"/>
     </g>
    </g>
   </g>
   <g id="text_38">
    <text style="font-weight: 700; font-size: 8px; font-family: 'Arial', 'DejaVu Sans'; text-anchor: start; fill: #111111" x="0" y="125.037313" transform="rotate(-0 0 125.037313)">c</text>
   </g>
   <g id="legend_2">
    <g id="patch_11">
     <path d="M 62.93212 256.178115 
L 71.33212 256.178115 
L 71.33212 251.978115 
L 62.93212 251.978115 
z
" style="fill: #cfe0f5; stroke: #2a78d6; stroke-width: 0.5; stroke-linejoin: miter"/>
    </g>
    <g id="text_39">
     <text style="font-size: 6px; font-family: 'Arial', 'DejaVu Sans'; text-anchor: start; fill: #111111" x="73.73212" y="256.178115" transform="rotate(-0 73.73212 256.178115)">Scenarios (density)</text>
    </g>
    <g id="line2d_66">
     <path d="M 131.083682 254.078115 
L 135.283682 254.078115 
L 139.483682 254.078115 
" style="fill: none; stroke: #4d4c48; stroke-width: 2.4; stroke-linecap: round"/>
    </g>
    <g id="text_40">
     <text style="font-size: 6px; font-family: 'Arial', 'DejaVu Sans'; text-anchor: start; fill: #111111" x="141.883682" y="256.178115" transform="rotate(-0 141.883682 256.178115)">25–75th percentile</text>
    </g>
   </g>
  </g>
  <g id="subfigure_4">
   <g id="patch_12">
    <path d="M 264.55748 261.040927 
L 518.740157 261.040927 
L 518.740157 119.213094 
L 264.55748 119.213094 
L 264.55748 261.040927 
z
" style="fill: none"/>
   </g>
   <g id="axes_4">
    <g id="patch_13">
     <path d="M 292.888472 218.15383 
L 514.488189 218.15383 
L 514.488189 123.465062 
L 292.888472 123.465062 
z
" style="fill: #ffffff"/>
    </g>
    <g id="patch_14">
     <path d="M 301.55919 218.15383 
L 307.251417 218.15383 
L 307.251417 152.851232 
L 301.55919 152.851232 
z
" clip-path="url(#pc0fd811e37)" style="fill: #2a78d6"/>
    </g>
    <g id="patch_15">
     <path d="M 308.178058 218.15383 
L 313.870285 218.15383 
L 313.870285 211.097322 
L 308.178058 211.097322 
z
" clip-path="url(#pc0fd811e37)" style="fill: #eb6834"/>
    </g>
    <g id="patch_16">
     <path d="M 314.796927 218.15383 
L 320.489154 218.15383 
L 320.489154 209.781702 
L 314.796927 209.781702 
z
" clip-path="url(#pc0fd811e37)" style="fill: #eb6834"/>
    </g>
    <g id="patch_17">
     <path d="M 321.415795 218.15383 
L 327.108022 218.15383 
L 327.108022 211.097322 
L 321.415795 211.097322 
z
" clip-path="url(#pc0fd811e37)" style="fill: #eb6834"/>
    </g>
    <g id="patch_18">
     <path d="M 328.034664 218.15383 
L 333.726891 218.15383 
L 333.726891 212.173739 
L 328.034664 212.173739 
z
" clip-path="url(#pc0fd811e37)" style="fill: #eb6834"/>
    </g>
    <g id="patch_19">
     <path d="M 334.653532 218.15383 
L 340.345759 218.15383 
L 340.345759 211.57573 
L 334.653532 211.57573 
z
" clip-path="url(#pc0fd811e37)" style="fill: #eb6834"/>
    </g>
    <g id="patch_20">
     <path d="M 341.272401 218.15383 
L 346.964628 218.15383 
L 346.964628 213.489359 
L 341.272401 213.489359 
z
" clip-path="url(#pc0fd811e37)" style="fill: #eb6834"/>
    </g>
    <g id="patch_21">
     <path d="M 347.891269 218.15383 
L 353.583496 218.15383 
L 353.583496 215.402988 
L 347.891269 215.402988 
z
" clip-path="url(#pc0fd811e37)" style="fill: #eb6834"/>
    </g>
    <g id="patch_22">
     <path d="M 354.510138 218.15383 
L 360.202365 218.15383 
L 360.202365 215.163785 
L 354.510138 215.163785 
z
" clip-path="url(#pc0fd811e37)" style="fill: #eb6834"/>
    </g>
    <g id="patch_23">
     <path d="M 361.129006 218.15383 
L 366.821233 218.15383 
L 366.821233 215.881396 
L 361.129006 215.881396 
z
" clip-path="url(#pc0fd811e37)" style="fill: #eb6834"/>
    </g>
    <g id="patch_24">
     <path d="M 367.747875 218.15383 
L 373.440102 218.15383 
L 373.440102 216.359803 
L 367.747875 216.359803 
z
" clip-path="url(#pc0fd811e37)" style="fill: #eb6834"/>
    </g>
    <g id="patch_25">
     <path d="M 374.366743 218.15383 
L 380.05897 218.15383 
L 380.05897 216.479405 
L 374.366743 216.479405 
z
" clip-path="url(#pc0fd811e37)" style="fill: #eb6834"/>
    </g>
    <g id="patch_26">
     <path d="M 380.985612 218.15383 
L 386.677839 218.15383 
L 386.677839 217.197016 
L 380.985612 217.197016 
z
" clip-path="url(#pc0fd811e37)" style="fill: #eb6834"/>
    </g>
    <g id="patch_27">
     <path d="M 387.60448 218.15383 
L 393.296707 218.15383 
L 393.296707 217.914627 
L 387.60448 217.914627 
z
" clip-path="url(#pc0fd811e37)" style="fill: #eb6834"/>
    </g>
    <g id="patch_28">
     <path d="M 394.223349 218.15383 
L 399.915576 218.15383 
L 399.915576 217.675423 
L 394.223349 217.675423 
z
" clip-path="url(#pc0fd811e37)" style="fill: #eb6834"/>
    </g>
    <g id="patch_29">
     <path d="M 400.842217 218.15383 
L 406.534444 218.15383 
L 406.534444 217.914627 
L 400.842217 217.914627 
z
" clip-path="url(#pc0fd811e37)" style="fill: #eb6834"/>
    </g>
    <g id="patch_30">
     <path d="M 407.461086 218.15383 
L 413.153313 218.15383 
L 413.153313 217.077414 
L 407.461086 217.077414 
z
" clip-path="url(#pc0fd811e37)" style="fill: #eb6834"/>
    </g>
    <g id="patch_31">
     <path d="M 414.079954 218.15383 
L 419.772181 218.15383 
L 419.772181 218.15383 
L 414.079954 218.15383 
z
" clip-path="url(#pc0fd811e37)" style="fill: #eb6834"/>
    </g>
    <g id="patch_32">
     <path d="M 420.698823 218.15383 
L 426.39105 218.15383 
L 426.39105 218.15383 
L 420.698823 218.15383 
z
" clip-path="url(#pc0fd811e37)" style="fill: #eb6834"/>
    </g>
    <g id="patch_33">
     <path d="M 427.317691 218.15383 
L 433.009918 218.15383 
L 433.009918 218.15383 
L 427.317691 218.15383 
z
" clip-path="url(#pc0fd811e37)" style="fill: #eb6834"/>
    </g>
    <g id="patch_34">
     <path d="M 433.93656 218.15383 
L 439.628786 218.15383 
L 439.628786 218.15383 
L 433.93656 218.15383 
z
" clip-path="url(#pc0fd811e37)" style="fill: #eb6834"/>
    </g>
    <g id="patch_35">
     <path d="M 440.555428 218.15383 
L 446.247655 218.15383 
L 446.247655 218.15383 
L 440.555428 218.15383 
z
" clip-path="url(#pc0fd811e37)" style="fill: #eb6834"/>
    </g>
    <g id="patch_36">
     <path d="M 447.174297 218.15383 
L 452.866523 218.15383 
L 452.866523 218.15383 
L 447.174297 218.15383 
z
" clip-path="url(#pc0fd811e37)" style="fill: #eb6834"/>
    </g>
    <g id="patch_37">
     <path d="M 453.793165 218.15383 
L 459.485392 218.15383 
L 459.485392 218.15383 
L 453.793165 218.15383 
z
" clip-path="url(#pc0fd811e37)" style="fill: #eb6834"/>
    </g>
    <g id="patch_38">
     <path d="M 460.412033 218.15383 
L 466.10426 218.15383 
L 466.10426 218.15383 
L 460.412033 218.15383 
z
" clip-path="url(#pc0fd811e37)" style="fill: #eb6834"/>
    </g>
    <g id="patch_39">
     <path d="M 467.030902 218.15383 
L 472.723129 218.15383 
L 472.723129 218.15383 
L 467.030902 218.15383 
z
" clip-path="url(#pc0fd811e37)" style="fill: #eb6834"/>
    </g>
    <g id="patch_40">
     <path d="M 473.64977 218.15383 
L 479.341997 218.15383 
L 479.341997 218.15383 
L 473.64977 218.15383 
z
" clip-path="url(#pc0fd811e37)" style="fill: #eb6834"/>
    </g>
    <g id="patch_41">
     <path d="M 480.268639 218.15383 
L 485.960866 218.15383 
L 485.960866 218.15383 
L 480.268639 218.15383 
z
" clip-path="url(#pc0fd811e37)" style="fill: #eb6834"/>
    </g>
    <g id="patch_42">
     <path d="M 486.887507 218.15383 
L 492.579734 218.15383 
L 492.579734 218.15383 
L 486.887507 218.15383 
z
" clip-path="url(#pc0fd811e37)" style="fill: #eb6834"/>
    </g>
    <g id="patch_43">
     <path d="M 493.506376 218.15383 
L 499.198603 218.15383 
L 499.198603 218.15383 
L 493.506376 218.15383 
z
" clip-path="url(#pc0fd811e37)" style="fill: #eb6834"/>
    </g>
    <g id="patch_44">
     <path d="M 500.125244 218.15383 
L 505.817471 218.15383 
L 505.817471 218.034228 
L 500.125244 218.034228 
z
" clip-path="url(#pc0fd811e37)" style="fill: #eb6834"/>
    </g>
    <g id="line2d_67">
     <path d="M 307.714738 218.15383 
L 307.714738 133.260452 
" clip-path="url(#pc0fd811e37)" style="fill: none; stroke: #3a3a38; stroke-width: 0.5; stroke-linecap: round"/>
    </g>
    <g id="matplotlib.axis_7">
     <g id="xtick_15">
      <g id="line2d_68">
       <g>
        <use xlink:href="#m2d55354cb6" x="307.714738" y="218.15383" style="fill: #3a3a38; stroke: #3a3a38; stroke-width: 0.5"/>
       </g>
      </g>
      <g id="text_41">
       <text style="font-size: 6px; font-family: 'Arial', 'DejaVu Sans'; text-anchor: middle; fill: #111111" x="307.714738" y="227.021994" transform="rotate(-0 307.714738 227.021994)">0.0</text>
      </g>
     </g>
     <g id="xtick_16">
      <g id="line2d_69">
       <g>
        <use xlink:href="#m2d55354cb6" x="354.756905" y="218.15383" style="fill: #3a3a38; stroke: #3a3a38; stroke-width: 0.5"/>
       </g>
      </g>
      <g id="text_42">
       <text style="font-size: 6px; font-family: 'Arial', 'DejaVu Sans'; text-anchor: middle; fill: #111111" x="354.756905" y="227.021994" transform="rotate(-0 354.756905 227.021994)">0.5</text>
      </g>
     </g>
     <g id="xtick_17">
      <g id="line2d_70">
       <g>
        <use xlink:href="#m2d55354cb6" x="401.799072" y="218.15383" style="fill: #3a3a38; stroke: #3a3a38; stroke-width: 0.5"/>
       </g>
      </g>
      <g id="text_43">
       <text style="font-size: 6px; font-family: 'Arial', 'DejaVu Sans'; text-anchor: middle; fill: #111111" x="401.799072" y="227.021994" transform="rotate(-0 401.799072 227.021994)">1.0</text>
      </g>
     </g>
     <g id="xtick_18">
      <g id="line2d_71">
       <g>
        <use xlink:href="#m2d55354cb6" x="448.841239" y="218.15383" style="fill: #3a3a38; stroke: #3a3a38; stroke-width: 0.5"/>
       </g>
      </g>
      <g id="text_44">
       <text style="font-size: 6px; font-family: 'Arial', 'DejaVu Sans'; text-anchor: middle; fill: #111111" x="448.841239" y="227.021994" transform="rotate(-0 448.841239 227.021994)">1.5</text>
      </g>
     </g>
     <g id="xtick_19">
      <g id="line2d_72">
       <g>
        <use xlink:href="#m2d55354cb6" x="495.883407" y="218.15383" style="fill: #3a3a38; stroke: #3a3a38; stroke-width: 0.5"/>
       </g>
      </g>
      <g id="text_45">
       <text style="font-size: 6px; font-family: 'Arial', 'DejaVu Sans'; text-anchor: middle; fill: #111111" x="495.883407" y="227.021994" transform="rotate(-0 495.883407 227.021994)">2.0</text>
      </g>
     </g>
     <g id="text_46">
      <text style="font-size: 7px; font-family: 'Arial', 'DejaVu Sans'; text-anchor: middle; fill: #111111" x="403.688331" y="236.380881" transform="rotate(-0 403.688331 236.380881)">Gain of the stochastic decision per scenario (×10⁹)</text>
     </g>
    </g>
    <g id="matplotlib.axis_8">
     <g id="ytick_11">
      <g id="line2d_73">
       <defs>
        <path id="ma378039b2d" d="M 0 0 
L -2.5 0 
" style="stroke: #3a3a38; stroke-width: 0.5"/>
       </defs>
       <g>
        <use xlink:href="#ma378039b2d" x="292.888472" y="218.15383" style="fill: #3a3a38; stroke: #3a3a38; stroke-width: 0.5"/>
       </g>
      </g>
      <g id="text_47">
       <text style="font-size: 6px; font-family: 'Arial', 'DejaVu Sans'; text-anchor: end; fill: #111111" x="288.388472" y="220.337912" transform="rotate(-0 288.388472 220.337912)">0</text>
      </g>
     </g>
     <g id="ytick_12">
      <g id="line2d_74">
       <g>
        <use xlink:href="#ma378039b2d" x="292.888472" y="206.193647" style="fill: #3a3a38; stroke: #3a3a38; stroke-width: 0.5"/>
       </g>
      </g>
      <g id="text_48">
       <text style="font-size: 6px; font-family: 'Arial', 'DejaVu Sans'; text-anchor: end; fill: #111111" x="288.388472" y="208.377729" transform="rotate(-0 288.388472 208.377729)">100</text>
      </g>
     </g>
     <g id="ytick_13">
      <g id="line2d_75">
       <g>
        <use xlink:href="#ma378039b2d" x="292.888472" y="194.233465" style="fill: #3a3a38; stroke: #3a3a38; stroke-width: 0.5"/>
       </g>
      </g>
      <g id="text_49">
       <text style="font-size: 6px; font-family: 'Arial', 'DejaVu Sans'; text-anchor: end; fill: #111111" x="288.388472" y="196.417547" transform="rotate(-0 288.388472 196.417547)">200</text>
      </g>
     </g>
     <g id="ytick_14">
      <g id="line2d_76">
       <g>
        <use xlink:href="#ma378039b2d" x="292.888472" y="182.273282" style="fill: #3a3a38; stroke: #3a3a38; stroke-width: 0.5"/>
       </g>
      </g>
      <g id="text_50">
       <text style="font-size: 6px; font-family: 'Arial', 'DejaVu Sans'; text-anchor: end; fill: #111111" x="288.388472" y="184.457364" transform="rotate(-0 288.388472 184.457364)">300</text>
      </g>
     </g>
     <g id="ytick_15">
      <g id="line2d_77">
       <g>
        <use xlink:href="#ma378039b2d" x="292.888472" y="170.313099" style="fill: #3a3a38; stroke: #3a3a38; stroke-width: 0.5"/>
       </g>
      </g>
      <g id="text_51">
       <text style="font-size: 6px; font-family: 'Arial', 'DejaVu Sans'; text-anchor: end; fill: #111111" x="288.388472" y="172.497181" transform="rotate(-0 288.388472 172.497181)">400</text>
      </g>
     </g>
     <g id="ytick_16">
      <g id="line2d_78">
       <g>
        <use xlink:href="#ma378039b2d" x="292.888472" y="158.352916" style="fill: #3a3a38; stroke: #3a3a38; stroke-width: 0.5"/>
       </g>
      </g>
      <g id="text_52">
       <text style="font-size: 6px; font-family: 'Arial', 'DejaVu Sans'; text-anchor: end; fill: #111111" x="288.388472" y="160.536998" transform="rotate(-0 288.388472 160.536998)">500</text>
      </g>
     </g>
     <g id="text_53">
      <text style="font-size: 7px; font-family: 'Arial', 'DejaVu Sans'; text-anchor: middle; fill: #111111" x="273.90564" y="170.809446" transform="rotate(-90 273.90564 170.809446)">Scenarios</text>
     </g>
    </g>
    <g id="line2d_79">
     <path d="M 318.794024 142.402816 
L 321.622182 142.402816 
" clip-path="url(#pc0fd811e37)" style="fill: none; stroke: #111111"/>
    </g>
    <g id="line2d_80">
     <defs>
      <path id="m913f0d09ef" d="M 0 2 
C 0.530406 2 1.03916 1.789267 1.414214 1.414214 
C 1.789267 1.03916 2 0.530406 2 0 
C 2 -0.530406 1.789267 -1.03916 1.414214 -1.414214 
C 1.03916 -1.789267 0.530406 -2 0 -2 
C -0.530406 -2 -1.03916 -1.789267 -1.414214 -1.414214 
C -1.789267 -1.03916 -2 -0.530406 -2 0 
C -2 0.530406 -1.789267 1.03916 -1.414214 1.414214 
C -1.03916 1.789267 -0.530406 2 0 2 
z
" style="stroke: #ffffff; stroke-width: 0.6"/>
     </defs>
     <g clip-path="url(#pc0fd811e37)">
      <use xlink:href="#m913f0d09ef" x="320.174672" y="142.402816" style="fill: #111111; stroke: #ffffff; stroke-width: 0.6"/>
     </g>
    </g>
    <g id="patch_45">
     <path d="M 292.888472 218.15383 
L 292.888472 123.465062 
" style="fill: none; stroke: #3a3a38; stroke-width: 0.5; stroke-linejoin: miter; stroke-linecap: square"/>
    </g>
    <g id="patch_46">
     <path d="M 292.888472 218.15383 
L 514.488189 218.15383 
" style="fill: none; stroke: #3a3a38; stroke-width: 0.5; stroke-linejoin: miter; stroke-linecap: square"/>
    </g>
    <g id="text_54">
     <text style="font-size: 6px; font-family: 'Arial', 'DejaVu Sans'; fill: #111111" transform="translate(418.007504 129.690456)">mean 132M, 95% CI 118M to 148M</text>
     <text style="font-size: 6px; font-family: 'Arial', 'DejaVu Sans'; fill: #111111" transform="translate(448.575629 137.074499)">stochastic better in 45%</text>
    </g>
   </g>
   <g id="text_55">
    <text style="font-weight: 700; font-size: 8px; font-family: 'Arial', 'DejaVu Sans'; text-anchor: start; fill: #111111" x="264.55748" y="125.037313" transform="rotate(-0 264.55748 125.037313)">d</text>
   </g>
   <g id="legend_3">
    <g id="patch_47">
     <path d="M 307.647881 256.178232 
L 316.047881 256.178232 
L 316.047881 251.978232 
L 307.647881 251.978232 
z
" style="fill: #2a78d6"/>
    </g>
    <g id="text_56">
     <text style="font-size: 6px; font-family: 'Arial', 'DejaVu Sans'; text-anchor: start; fill: #111111" x="318.447881" y="256.178232" transform="rotate(-0 318.447881 256.178232)">Mean-value decision better</text>
    </g>
    <g id="patch_48">
     <path d="M 396.483506 256.178232 
L 404.883506 256.178232 
L 404.883506 251.978232 
L 396.483506 251.978232 
z
" style="fill: #eb6834"/>
    </g>
    <g id="text_57">
     <text style="font-size: 6px; font-family: 'Arial', 'DejaVu Sans'; text-anchor: start; fill: #111111" x="407.283506" y="256.178232" transform="rotate(-0 407.283506 256.178232)">Stochastic decision better</text>
    </g>
   </g>
  </g>
  <g id="subfigure_5">
   <g id="patch_49">
    <path d="M 0 431.312041 
L 254.182677 431.312041 
L 254.182677 266.791754 
L 0 266.791754 
L 0 431.312041 
z
" style="fill: none"/>
   </g>
   <g id="axes_5">
    <g id="patch_50">
     <path d="M 28.331129 388.425081 
L 249.930709 388.425081 
L 249.930709 271.043723 
L 28.331129 271.043723 
z
" style="fill: #ffffff"/>
    </g>
    <g id="FillBetweenPolyCollection_4">
     <defs>
      <path id="mcee995bcb7" d="M 38.403837 -70.995013 
L 38.403837 -48.222476 
L 105.555225 -52.96464 
L 172.706613 -55.146557 
L 239.858 -63.05521 
L 239.858 -72.534571 
L 239.858 -72.534571 
L 172.706613 -67.919852 
L 105.555225 -72.334248 
L 38.403837 -70.995013 
z
"/>
     </defs>
     <g clip-path="url(#p68cf7a23bf)">
      <use xlink:href="#mcee995bcb7" x="0" y="431.312041" style="fill: #cfe0f5; fill-opacity: 0.85"/>
     </g>
    </g>
    <g id="FillBetweenPolyCollection_5">
     <defs>
      <path id="m9a22cf3d5a" d="M 38.403837 -154.932802 
L 38.403837 -77.262503 
L 105.555225 -67.840082 
L 172.706613 -69.327487 
L 239.858 -67.355462 
L 239.858 -73.956869 
L 239.858 -73.956869 
L 172.706613 -91.851155 
L 105.555225 -127.650443 
L 38.403837 -154.932802 
z
"/>
     </defs>
     <g clip-path="url(#p68cf7a23bf)">
      <use xlink:href="#m9a22cf3d5a" x="0" y="431.312041" style="fill: #f9d3c3; fill-opacity: 0.85"/>
     </g>
    </g>
    <g id="matplotlib.axis_9">
     <g id="xtick_20">
      <g id="line2d_81">
       <g>
        <use xlink:href="#m2d55354cb6" x="38.403837" y="388.425081" style="fill: #3a3a38; stroke: #3a3a38; stroke-width: 0.5"/>
       </g>
      </g>
      <g id="text_58">
       <text style="font-size: 6px; font-family: 'Arial', 'DejaVu Sans'; text-anchor: middle; fill: #111111" x="38.403837" y="397.293245" transform="rotate(-0 38.403837 397.293245)">10</text>
      </g>
     </g>
     <g id="xtick_21">
      <g id="line2d_82">
       <g>
        <use xlink:href="#m2d55354cb6" x="105.555225" y="388.425081" style="fill: #3a3a38; stroke: #3a3a38; stroke-width: 0.5"/>
       </g>
      </g>
      <g id="text_59">
       <text style="font-size: 6px; font-family: 'Arial', 'DejaVu Sans'; text-anchor: middle; fill: #111111" x="105.555225" y="397.293245" transform="rotate(-0 105.555225 397.293245)">25</text>
      </g>
     </g>
     <g id="xtick_22">
      <g id="line2d_83">
       <g>
        <use xlink:href="#m2d55354cb6" x="172.706613" y="388.425081" style="fill: #3a3a38; stroke: #3a3a38; stroke-width: 0.5"/>
       </g>
      </g>
      <g id="text_60">
       <text style="font-size: 6px; font-family: 'Arial', 'DejaVu Sans'; text-anchor: middle; fill: #111111" x="172.706613" y="397.293245" transform="rotate(-0 172.706613 397.293245)">50</text>
      </g>
     </g>
     <g id="xtick_23">
      <g id="line2d_84">
       <g>
        <use xlink:href="#m2d55354cb6" x="239.858" y="388.425081" style="fill: #3a3a38; stroke: #3a3a38; stroke-width: 0.5"/>
       </g>
      </g>
      <g id="text_61">
       <text style="font-size: 6px; font-family: 'Arial', 'DejaVu Sans'; text-anchor: middle; fill: #111111" x="239.858" y="397.293245" transform="rotate(-0 239.858 397.293245)">100</text>
      </g>
     </g>
     <g id="text_62">
      <text style="font-size: 7px; font-family: 'Arial', 'DejaVu Sans'; text-anchor: middle; fill: #111111" x="139.130919" y="406.652132" transform="rotate(-0 139.130919 406.652132)">Scenarios per sampled set</text>
     </g>
    </g>
    <g id="matplotlib.axis_10">
     <g id="ytick_17">
      <g id="line2d_85">
       <g>
        <use xlink:href="#ma378039b2d" x="28.331129" y="377.456157" style="fill: #3a3a38; stroke: #3a3a38; stroke-width: 0.5"/>
       </g>
      </g>
      <g id="text_63">
       <text style="font-size: 6px; font-family: 'Arial', 'DejaVu Sans'; text-anchor: end; fill: #111111" x="23.831129" y="379.640239" transform="rotate(-0 23.831129 379.640239)">280</text>
      </g>
     </g>
     <g id="ytick_18">
      <g id="line2d_86">
       <g>
        <use xlink:href="#ma378039b2d" x="28.331129" y="351.505095" style="fill: #3a3a38; stroke: #3a3a38; stroke-width: 0.5"/>
       </g>
      </g>
      <g id="text_64">
       <text style="font-size: 6px; font-family: 'Arial', 'DejaVu Sans'; text-anchor: end; fill: #111111" x="23.831129" y="353.689177" transform="rotate(-0 23.831129 353.689177)">320</text>
      </g>
     </g>
     <g id="ytick_19">
      <g id="line2d_87">
       <g>
        <use xlink:href="#ma378039b2d" x="28.331129" y="325.554033" style="fill: #3a3a38; stroke: #3a3a38; stroke-width: 0.5"/>
       </g>
      </g>
      <g id="text_65">
       <text style="font-size: 6px; font-family: 'Arial', 'DejaVu Sans'; text-anchor: end; fill: #111111" x="23.831129" y="327.738115" transform="rotate(-0 23.831129 327.738115)">360</text>
      </g>
     </g>
     <g id="ytick_20">
      <g id="line2d_88">
       <g>
        <use xlink:href="#ma378039b2d" x="28.331129" y="299.602971" style="fill: #3a3a38; stroke: #3a3a38; stroke-width: 0.5"/>
       </g>
      </g>
      <g id="text_66">
       <text style="font-size: 6px; font-family: 'Arial', 'DejaVu Sans'; text-anchor: end; fill: #111111" x="23.831129" y="301.787053" transform="rotate(-0 23.831129 301.787053)">400</text>
      </g>
     </g>
     <g id="ytick_21">
      <g id="line2d_89">
       <g>
        <use xlink:href="#ma378039b2d" x="28.331129" y="273.651909" style="fill: #3a3a38; stroke: #3a3a38; stroke-width: 0.5"/>
       </g>
      </g>
      <g id="text_67">
       <text style="font-size: 6px; font-family: 'Arial', 'DejaVu Sans'; text-anchor: end; fill: #111111" x="23.831129" y="275.835991" transform="rotate(-0 23.831129 275.835991)">440</text>
      </g>
     </g>
     <g id="text_68">
      <text style="font-size: 7px; font-family: 'Arial', 'DejaVu Sans'; text-anchor: middle; fill: #111111" x="9.34816" y="329.734402" transform="rotate(-90 9.34816 329.734402)">Risk-adjusted objective (×10⁶)</text>
     </g>
    </g>
    <g id="patch_51">
     <path d="M 28.331129 388.425081 
L 28.331129 271.043723 
" style="fill: none; stroke: #3a3a38; stroke-width: 0.5; stroke-linejoin: miter; stroke-linecap: square"/>
    </g>
    <g id="patch_52">
     <path d="M 28.331129 388.425081 
L 249.930709 388.425081 
" style="fill: none; stroke: #3a3a38; stroke-width: 0.5; stroke-linejoin: miter; stroke-linecap: square"/>
    </g>
    <g id="line2d_90">
     <path d="M 38.403837 372.039348 
L 105.555225 366.956092 
L 172.706613 368.76824 
L 239.858 365.02097 
" clip-path="url(#p68cf7a23bf)" style="fill: none; stroke: #2a78d6; stroke-linecap: round"/>
     <g clip-path="url(#p68cf7a23bf)">
      <use xlink:href="#mc64a5a1120" x="38.403837" y="372.039348" style="fill: #2a78d6; stroke: #ffffff; stroke-width: 0.6"/>
      <use xlink:href="#mc64a5a1120" x="105.555225" y="366.956092" style="fill: #2a78d6; stroke: #ffffff; stroke-width: 0.6"/>
      <use xlink:href="#mc64a5a1120" x="172.706613" y="368.76824" style="fill: #2a78d6; stroke: #ffffff; stroke-width: 0.6"/>
      <use xlink:href="#mc64a5a1120" x="239.858" y="365.02097" style="fill: #2a78d6; stroke: #ffffff; stroke-width: 0.6"/>
     </g>
    </g>
    <g id="line2d_91">
     <path d="M 38.403837 319.535137 
L 105.555225 344.824023 
L 172.706613 353.092217 
L 239.858 361.441934 
" clip-path="url(#p68cf7a23bf)" style="fill: none; stroke: #eb6834; stroke-linecap: round"/>
     <g clip-path="url(#p68cf7a23bf)">
      <use xlink:href="#mc29a408f0d" x="38.403837" y="319.535137" style="fill: #eb6834; stroke: #ffffff; stroke-width: 0.6; stroke-linejoin: miter"/>
      <use xlink:href="#mc29a408f0d" x="105.555225" y="344.824023" style="fill: #eb6834; stroke: #ffffff; stroke-width: 0.6; stroke-linejoin: miter"/>
      <use xlink:href="#mc29a408f0d" x="172.706613" y="353.092217" style="fill: #eb6834; stroke: #ffffff; stroke-width: 0.6; stroke-linejoin: miter"/>
      <use xlink:href="#mc29a408f0d" x="239.858" y="361.441934" style="fill: #eb6834; stroke: #ffffff; stroke-width: 0.6; stroke-linejoin: miter"/>
     </g>
    </g>
   </g>
   <g id="text_69">
    <text style="font-weight: 700; font-size: 8px; font-family: 'Arial', 'DejaVu Sans'; text-anchor: start; fill: #111111" x="0" y="272.615973" transform="rotate(-0 0 272.615973)">e</text>
   </g>
   <g id="legend_4">
    <g id="line2d_92">
     <path d="M 48.432276 424.349346 
L 52.632276 424.349346 
L 56.832276 424.349346 
" style="fill: none; stroke: #2a78d6; stroke-linecap: round"/>
     <g>
      <use xlink:href="#mc64a5a1120" x="52.632276" y="424.349346" style="fill: #2a78d6; stroke: #ffffff; stroke-width: 0.6"/>
     </g>
    </g>
    <g id="text_70">
     <text style="font-size: 6px; font-family: 'Arial', 'DejaVu Sans'; text-anchor: start; fill: #111111" x="59.232276" y="426.449346" transform="rotate(-0 59.232276 426.449346)">In-sample optimum</text>
    </g>
    <g id="line2d_93">
     <path d="M 116.246339 424.349346 
L 120.446339 424.349346 
L 124.646339 424.349346 
" style="fill: none; stroke: #eb6834; stroke-linecap: round"/>
     <g>
      <use xlink:href="#mc29a408f0d" x="120.446339" y="424.349346" style="fill: #eb6834; stroke: #ffffff; stroke-width: 0.6; stroke-linejoin: miter"/>
     </g>
    </g>
    <g id="text_71">
     <text style="font-size: 6px; font-family: 'Arial', 'DejaVu Sans'; text-anchor: start; fill: #111111" x="127.046339" y="426.449346" transform="rotate(-0 127.046339 426.449346)">Same decision, out of sample</text>
    </g>
   </g>
  </g>
  <g id="subfigure_6">
   <g id="patch_53">
    <path d="M 264.55748 431.312041 
L 518.740157 431.312041 
L 518.740157 266.791754 
L 264.55748 266.791754 
L 264.55748 431.312041 
z
" style="fill: none"/>
   </g>
   <g id="axes_6">
    <g id="patch_54">
     <path d="M 297.892046 388.424944 
L 514.488189 388.424944 
L 514.488189 271.989733 
L 297.892046 271.989733 
z
" style="fill: #ffffff"/>
    </g>
    <g id="matplotlib.axis_11">
     <g id="xtick_24">
      <g id="line2d_94">
       <g>
        <use xlink:href="#m2d55354cb6" x="306.584229" y="388.424944" style="fill: #3a3a38; stroke: #3a3a38; stroke-width: 0.5"/>
       </g>
      </g>
      <g id="text_72">
       <text style="font-size: 6px; font-family: 'Arial', 'DejaVu Sans'; text-anchor: middle; fill: #111111" x="306.584229" y="397.293108" transform="rotate(-0 306.584229 397.293108)">315</text>
      </g>
     </g>
     <g id="xtick_25">
      <g id="line2d_95">
       <g>
        <use xlink:href="#m2d55354cb6" x="361.309678" y="388.424944" style="fill: #3a3a38; stroke: #3a3a38; stroke-width: 0.5"/>
       </g>
      </g>
      <g id="text_73">
       <text style="font-size: 6px; font-family: 'Arial', 'DejaVu Sans'; text-anchor: middle; fill: #111111" x="361.309678" y="397.293108" transform="rotate(-0 361.309678 397.293108)">330</text>
      </g>
     </g>
     <g id="xtick_26">
      <g id="line2d_96">
       <g>
        <use xlink:href="#m2d55354cb6" x="416.035128" y="388.424944" style="fill: #3a3a38; stroke: #3a3a38; stroke-width: 0.5"/>
       </g>
      </g>
      <g id="text_74">
       <text style="font-size: 6px; font-family: 'Arial', 'DejaVu Sans'; text-anchor: middle; fill: #111111" x="416.035128" y="397.293108" transform="rotate(-0 416.035128 397.293108)">345</text>
      </g>
     </g>
     <g id="xtick_27">
      <g id="line2d_97">
       <g>
        <use xlink:href="#m2d55354cb6" x="470.760577" y="388.424944" style="fill: #3a3a38; stroke: #3a3a38; stroke-width: 0.5"/>
       </g>
      </g>
      <g id="text_75">
       <text style="font-size: 6px; font-family: 'Arial', 'DejaVu Sans'; text-anchor: middle; fill: #111111" x="470.760577" y="397.293108" transform="rotate(-0 470.760577 397.293108)">360</text>
      </g>
     </g>
     <g id="text_76">
      <text style="font-size: 7px; font-family: 'Arial', 'DejaVu Sans'; text-anchor: middle; fill: #111111" x="406.190118" y="406.651995" transform="rotate(-0 406.190118 406.651995)">CVaR at 0.9, mean of the worst 10% (×10⁶)</text>
     </g>
    </g>
    <g id="matplotlib.axis_12">
     <g id="ytick_22">
      <g id="line2d_98">
       <g>
        <use xlink:href="#ma378039b2d" x="297.892046" y="363.182267" style="fill: #3a3a38; stroke: #3a3a38; stroke-width: 0.5"/>
       </g>
      </g>
      <g id="text_77">
       <text style="font-size: 6px; font-family: 'Arial', 'DejaVu Sans'; text-anchor: end; fill: #111111" x="293.392046" y="365.366349" transform="rotate(-0 293.392046 365.366349)">272.5</text>
      </g>
     </g>
     <g id="ytick_23">
      <g id="line2d_99">
       <g>
        <use xlink:href="#ma378039b2d" x="297.892046" y="336.351709" style="fill: #3a3a38; stroke: #3a3a38; stroke-width: 0.5"/>
       </g>
      </g>
      <g id="text_78">
       <text style="font-size: 6px; font-family: 'Arial', 'DejaVu Sans'; text-anchor: end; fill: #111111" x="293.392046" y="338.535791" transform="rotate(-0 293.392046 338.535791)">275.0</text>
      </g>
     </g>
     <g id="ytick_24">
      <g id="line2d_100">
       <g>
        <use xlink:href="#ma378039b2d" x="297.892046" y="309.52115" style="fill: #3a3a38; stroke: #3a3a38; stroke-width: 0.5"/>
       </g>
      </g>
      <g id="text_79">
       <text style="font-size: 6px; font-family: 'Arial', 'DejaVu Sans'; text-anchor: end; fill: #111111" x="293.392046" y="311.705232" transform="rotate(-0 293.392046 311.705232)">277.5</text>
      </g>
     </g>
     <g id="ytick_25">
      <g id="line2d_101">
       <g>
        <use xlink:href="#ma378039b2d" x="297.892046" y="282.690591" style="fill: #3a3a38; stroke: #3a3a38; stroke-width: 0.5"/>
       </g>
      </g>
      <g id="text_80">
       <text style="font-size: 6px; font-family: 'Arial', 'DejaVu Sans'; text-anchor: end; fill: #111111" x="293.392046" y="284.874673" transform="rotate(-0 293.392046 284.874673)">280.0</text>
      </g>
     </g>
     <g id="text_81">
      <text style="font-size: 7px; font-family: 'Arial', 'DejaVu Sans'; text-anchor: middle; fill: #111111" x="273.90564" y="330.207338" transform="rotate(-90 273.90564 330.207338)">Expected cost (×10⁶)</text>
     </g>
    </g>
    <g id="line2d_102">
     <path d="M 504.64291 371.473914 
L 367.508135 356.226119 
L 356.078535 339.280943 
L 346.258377 287.507832 
L 345.797145 277.282242 
" clip-path="url(#p7355ae6a50)" style="fill: none; stroke-dasharray: 2.4,1.2; stroke-dashoffset: 0; stroke: #eb6834; stroke-width: 0.8"/>
     <defs>
      <path id="m37c57b5693" d="M -2 2 
L 2 2 
L 2 -2 
L -2 -2 
z
" style="stroke: #eb6834; stroke-width: 0.8; stroke-linejoin: miter"/>
     </defs>
     <g clip-path="url(#p7355ae6a50)">
      <use xlink:href="#m37c57b5693" x="504.64291" y="371.473914" style="fill: #ffffff; stroke: #eb6834; stroke-width: 0.8; stroke-linejoin: miter"/>
      <use xlink:href="#m37c57b5693" x="367.508135" y="356.226119" style="fill: #ffffff; stroke: #eb6834; stroke-width: 0.8; stroke-linejoin: miter"/>
      <use xlink:href="#m37c57b5693" x="356.078535" y="339.280943" style="fill: #ffffff; stroke: #eb6834; stroke-width: 0.8; stroke-linejoin: miter"/>
      <use xlink:href="#m37c57b5693" x="346.258377" y="287.507832" style="fill: #ffffff; stroke: #eb6834; stroke-width: 0.8; stroke-linejoin: miter"/>
      <use xlink:href="#m37c57b5693" x="345.797145" y="277.282242" style="fill: #ffffff; stroke: #eb6834; stroke-width: 0.8; stroke-linejoin: miter"/>
     </g>
    </g>
    <g id="patch_55">
     <path d="M 297.892046 388.424944 
L 297.892046 271.989733 
" style="fill: none; stroke: #3a3a38; stroke-width: 0.5; stroke-linejoin: miter; stroke-linecap: square"/>
    </g>
    <g id="patch_56">
     <path d="M 297.892046 388.424944 
L 514.488189 388.424944 
" style="fill: none; stroke: #3a3a38; stroke-width: 0.5; stroke-linejoin: miter; stroke-linecap: square"/>
    </g>
    <g id="line2d_103">
     <path d="M 407.8511 383.132435 
L 326.86209 352.384811 
L 318.489779 335.444605 
L 308.273802 287.845399 
L 307.737326 278.047796 
" clip-path="url(#p7355ae6a50)" style="fill: none; stroke: #eb6834; stroke-linecap: round"/>
     <g clip-path="url(#p7355ae6a50)">
      <use xlink:href="#mc29a408f0d" x="407.8511" y="383.132435" style="fill: #eb6834; stroke: #ffffff; stroke-width: 0.6; stroke-linejoin: miter"/>
      <use xlink:href="#mc29a408f0d" x="326.86209" y="352.384811" style="fill: #eb6834; stroke: #ffffff; stroke-width: 0.6; stroke-linejoin: miter"/>
      <use xlink:href="#mc29a408f0d" x="318.489779" y="335.444605" style="fill: #eb6834; stroke: #ffffff; stroke-width: 0.6; stroke-linejoin: miter"/>
      <use xlink:href="#mc29a408f0d" x="308.273802" y="287.845399" style="fill: #eb6834; stroke: #ffffff; stroke-width: 0.6; stroke-linejoin: miter"/>
      <use xlink:href="#mc29a408f0d" x="307.737326" y="278.047796" style="fill: #eb6834; stroke: #ffffff; stroke-width: 0.6; stroke-linejoin: miter"/>
     </g>
    </g>
    <g id="text_82">
     <text style="font-size: 5.5px; font-family: 'Arial', 'DejaVu Sans'; text-anchor: start; fill: #4d4c48" x="410.8511" y="380.132435" transform="rotate(-0 410.8511 380.132435)">0</text>
    </g>
    <g id="text_83">
     <text style="font-size: 5.5px; font-family: 'Arial', 'DejaVu Sans'; text-anchor: start; fill: #4d4c48" x="329.86209" y="349.384811" transform="rotate(-0 329.86209 349.384811)">0.25</text>
    </g>
    <g id="text_84">
     <text style="font-size: 5.5px; font-family: 'Arial', 'DejaVu Sans'; text-anchor: start; fill: #4d4c48" x="321.489779" y="332.444605" transform="rotate(-0 321.489779 332.444605)">0.5</text>
    </g>
    <g id="text_85">
     <text style="font-size: 5.5px; font-family: 'Arial', 'DejaVu Sans'; text-anchor: start; fill: #4d4c48" x="311.273802" y="284.845399" transform="rotate(-0 311.273802 284.845399)">0.75</text>
    </g>
    <g id="text_86">
     <text style="font-size: 5.5px; font-family: 'Arial', 'DejaVu Sans'; text-anchor: start; fill: #4d4c48" x="310.737326" y="275.047796" transform="rotate(-0 310.737326 275.047796)">1</text>
    </g>
    <g id="text_87">
     <text style="font-size: 5.5px; font-family: 'Arial', 'DejaVu Sans'; text-anchor: end; fill: #4d4c48" x="512.322228" y="277.158235" transform="rotate(-0 512.322228 277.158235)">Mean-value decision: expected 430M, CVaR 1.02B (off scale)</text>
    </g>
   </g>
   <g id="text_88">
    <text style="font-weight: 700; font-size: 8px; font-family: 'Arial', 'DejaVu Sans'; text-anchor: start; fill: #111111" x="264.55748" y="272.615973" transform="rotate(-0 264.55748 272.615973)">f</text>
   </g>
   <g id="legend_5">
    <g id="line2d_104">
     <path d="M 288.472256 424.349346 
L 292.672256 424.349346 
L 296.872256 424.349346 
" style="fill: none; stroke: #eb6834; stroke-linecap: round"/>
     <g>
      <use xlink:href="#mc29a408f0d" x="292.672256" y="424.349346" style="fill: #eb6834; stroke: #ffffff; stroke-width: 0.6; stroke-linejoin: miter"/>
     </g>
    </g>
    <g id="text_89">
     <text style="font-size: 6px; font-family: 'Arial', 'DejaVu Sans'; text-anchor: start; fill: #111111" x="299.272256" y="426.449346" transform="rotate(-0 299.272256 426.449346)">Stochastic decision on the scenarios</text>
    </g>
    <g id="line2d_105">
     <path d="M 402.321319 424.349346 
L 406.521319 424.349346 
L 410.721319 424.349346 
" style="fill: none; stroke-dasharray: 2.4,1.2; stroke-dashoffset: 0; stroke: #eb6834; stroke-width: 0.8"/>
     <g>
      <use xlink:href="#m37c57b5693" x="406.521319" y="424.349346" style="fill: #ffffff; stroke: #eb6834; stroke-width: 0.8; stroke-linejoin: miter"/>
     </g>
    </g>
    <g id="text_90">
     <text style="font-size: 6px; font-family: 'Arial', 'DejaVu Sans'; text-anchor: start; fill: #111111" x="413.121319" y="426.449346" transform="rotate(-0 413.121319 426.449346)">Same decisions, out of sample</text>
    </g>
   </g>
  </g>
 </g>
 <defs>
  <clipPath id="p8d545214d2">
   <rect x="78.948531" y="4.251969" width="152.916322" height="85.257998"/>
  </clipPath>
  <clipPath id="p0c81fd5d77">
   <rect x="296.826011" y="4.251969" width="210.801182" height="66.323201"/>
  </clipPath>
  <clipPath id="pf25ceefb33">
   <rect x="50.615406" y="123.465062" width="199.315303" height="94.688787"/>
  </clipPath>
  <clipPath id="pc0fd811e37">
   <rect x="292.888472" y="123.465062" width="221.599717" height="94.688768"/>
  </clipPath>
  <clipPath id="p68cf7a23bf">
   <rect x="28.331129" y="271.043723" width="221.59958" height="117.381358"/>
  </clipPath>
  <clipPath id="p7355ae6a50">
   <rect x="297.892046" y="271.989733" width="216.596143" height="116.435212"/>
  </clipPath>
 </defs>
</svg>
