<?xml version="1.0" encoding="utf-8" standalone="no"?>
<!DOCTYPE svg PUBLIC "-//W3C//DTD SVG 1.1//EN"
  "http://www.w3.org/Graphics/SVG/1.1/DTD/svg11.dtd">
<svg xmlns:xlink="http://www.w3.org/1999/xlink" width="252.283465pt" height="89.574803pt" viewBox="0 0 252.283465 89.574803" xmlns="http://www.w3.org/2000/svg" version="1.1">
 <metadata>
  <rdf:RDF xmlns:dc="http://purl.org/dc/elements/1.1/" xmlns:cc="http://creativecommons.org/ns#" xmlns:rdf="http://www.w3.org/1999/02/22-rdf-syntax-ns#">
   <cc:Work>
    <dc:type rdf:resource="http://purl.org/dc/dcmitype/StillImage"/>
    <dc:date>2026-10-03T14:12:24.502917</dc:date>
    <dc:format>image/svg+xml</dc:format>
    <dc:creator>
     <cc:Agent>
      <dc:title>Matplotlib v3.11.2, https://matplotlib.org/</dc:title>
     </cc:Agent>
    </dc:creator>
   </cc:Work>
  </rdf:RDF>
 </metadata>
 <defs>
  <style type="text/css">*{stroke-linejoin: round; stroke-linecap: butt}</style>
 </defs>
 <g id="figure_1">
  <g id="patch_1">
   <path d="M 0 89.574803 
L 252.283465 89.574803 
L 252.283465 0 
L 0 0 
z
" style="fill: #ffffff"/>
  </g>
  <g id="axes_1">
   <g id="patch_2">
    <path d="M 32.268531 46.687706 
L 241.164666 46.687706 
L 241.164666 4.251969 
L 32.268531 4.251969 
z
" style="fill: #ffffff"/>
   </g>
   <g id="line2d_1">
    <path d="M 32.268531 38.731005 
L 241.164666 38.731005 
" clip-path="url(#p6447ae86b9)" style="fill: none; stroke: #e4e3dd; stroke-width: 0.5; stroke-linecap: round"/>
   </g>
   <g id="line2d_2">
    <path d="M 32.268531 25.469837 
L 241.164666 25.469837 
" clip-path="url(#p6447ae86b9)" style="fill: none; stroke: #e4e3dd; stroke-width: 0.5; stroke-linecap: round"/>
   </g>
   <g id="line2d_3">
    <path d="M 32.268531 12.208669 
L 241.164666 12.208669 
" clip-path="url(#p6447ae86b9)" style="fill: none; stroke: #e4e3dd; stroke-width: 0.5; stroke-linecap: round"/>
   </g>
   <g id="line2d_4">
    <path d="M 104.73056 38.731005 
L 77.028099 38.731005 
" clip-path="url(#p6447ae86b9)" style="fill: none; stroke: #c4c3bb; stroke-width: 1.4"/>
   </g>
   <g id="line2d_5">
    <path d="M 191.37316 25.469837 
L 226.758036 25.469837 
" clip-path="url(#p6447ae86b9)" style="fill: none; stroke: #c4c3bb; stroke-width: 1.4"/>
   </g>
   <g id="line2d_6">
    <path d="M 46.675161 12.208669 
L 116.085071 12.208669 
" clip-path="url(#p6447ae86b9)" style="fill: none; stroke: #c4c3bb; stroke-width: 1.4"/>
   </g>
   <g id="matplotlib.axis_1">
    <g id="xtick_1">
     <g id="line2d_7">
      <defs>
       <path id="m620d9cef95" d="M 0 0 
L 0 2.5 
" style="stroke: #3a3a38; stroke-width: 0.5"/>
      </defs>
      <g>
       <use xlink:href="#m620d9cef95" x="46.675161" y="46.687706" style="fill: #3a3a38; stroke: #3a3a38; stroke-width: 0.5"/>
      </g>
     </g>
     <g id="text_1">
      <text style="font-size: 6px; font-family: 'Arial', 'DejaVu Sans'; text-anchor: middle; fill: #111111" x="46.675161" y="55.55587" transform="rotate(-0 46.675161 55.55587)">0</text>
     </g>
    </g>
    <g id="xtick_2">
     <g id="line2d_8">
      <g>
       <use xlink:href="#m620d9cef95" x="95.137604" y="46.687706" style="fill: #3a3a38; stroke: #3a3a38; stroke-width: 0.5"/>
      </g>
     </g>
     <g id="text_2">
      <text style="font-size: 6px; font-family: 'Arial', 'DejaVu Sans'; text-anchor: middle; fill: #111111" x="95.137604" y="55.55587" transform="rotate(-0 95.137604 55.55587)">300</text>
     </g>
    </g>
    <g id="xtick_3">
     <g id="line2d_9">
      <g>
       <use xlink:href="#m620d9cef95" x="143.600047" y="46.687706" style="fill: #3a3a38; stroke: #3a3a38; stroke-width: 0.5"/>
      </g>
     </g>
     <g id="text_3">
      <text style="font-size: 6px; font-family: 'Arial', 'DejaVu Sans'; text-anchor: middle; fill: #111111" x="143.600047" y="55.55587" transform="rotate(-0 143.600047 55.55587)">600</text>
     </g>
    </g>
    <g id="xtick_4">
     <g id="line2d_10">
      <g>
       <use xlink:href="#m620d9cef95" x="192.06249" y="46.687706" style="fill: #3a3a38; stroke: #3a3a38; stroke-width: 0.5"/>
      </g>
     </g>
     <g id="text_4">
      <text style="font-size: 6px; font-family: 'Arial', 'DejaVu Sans'; text-anchor: middle; fill: #111111" x="192.06249" y="55.55587" transform="rotate(-0 192.06249 55.55587)">900</text>
     </g>
    </g>
    <g id="xtick_5">
     <g id="line2d_11">
      <g>
       <use xlink:href="#m620d9cef95" x="240.524933" y="46.687706" style="fill: #3a3a38; stroke: #3a3a38; stroke-width: 0.5"/>
      </g>
     </g>
     <g id="text_5">
      <text style="font-size: 6px; font-family: 'Arial', 'DejaVu Sans'; text-anchor: middle; fill: #111111" x="240.524933" y="55.55587" transform="rotate(-0 240.524933 55.55587)">1,200</text>
     </g>
    </g>
    <g id="text_6">
     <text style="font-size: 7px; font-family: 'Arial', 'DejaVu Sans'; text-anchor: middle; fill: #111111" x="136.716599" y="64.914757" transform="rotate(-0 136.716599 64.914757)">First-stage value</text>
    </g>
   </g>
   <g id="matplotlib.axis_2">
    <g id="ytick_1">
     <g id="line2d_12"/>
     <g id="text_7">
      <text style="font-size: 6px; font-family: 'Arial', 'DejaVu Sans'; text-anchor: end; fill: #111111" x="30.268531" y="40.915087" transform="rotate(-0 30.268531 40.915087)">cap[mid]</text>
     </g>
    </g>
    <g id="ytick_2">
     <g id="line2d_13"/>
     <g id="text_8">
      <text style="font-size: 6px; font-family: 'Arial', 'DejaVu Sans'; text-anchor: end; fill: #111111" x="30.268531" y="27.653919" transform="rotate(-0 30.268531 27.653919)">cap[base]</text>
     </g>
    </g>
    <g id="ytick_3">
     <g id="line2d_14"/>
     <g id="text_9">
      <text style="font-size: 6px; font-family: 'Arial', 'DejaVu Sans'; text-anchor: end; fill: #111111" x="30.268531" y="14.392751" transform="rotate(-0 30.268531 14.392751)">cap[peak]</text>
     </g>
    </g>
   </g>
   <g id="patch_3">
    <path d="M 32.268531 46.687706 
L 241.164666 46.687706 
" style="fill: none; stroke: #3a3a38; stroke-width: 0.5; stroke-linejoin: miter; stroke-linecap: square"/>
   </g>
   <g id="line2d_15">
    <defs>
     <path id="m7d639f7239" d="M 0 2.5 
C 0.663008 2.5 1.29895 2.236584 1.767767 1.767767 
C 2.236584 1.29895 2.5 0.663008 2.5 0 
C 2.5 -0.663008 2.236584 -1.29895 1.767767 -1.767767 
C 1.29895 -2.236584 0.663008 -2.5 0 -2.5 
C -0.663008 -2.5 -1.29895 -2.236584 -1.767767 -1.767767 
C -2.236584 -1.29895 -2.5 -0.663008 -2.5 0 
C -2.5 0.663008 -2.236584 1.29895 -1.767767 1.767767 
C -1.29895 2.236584 -0.663008 2.5 0 2.5 
z
" style="stroke: #ffffff; stroke-width: 0.6"/>
    </defs>
    <g clip-path="url(#p6447ae86b9)">
     <use xlink:href="#m7d639f7239" x="104.73056" y="38.731005" style="fill: #2a78d6; stroke: #ffffff; stroke-width: 0.6"/>
    </g>
   </g>
   <g id="line2d_16">
    <g clip-path="url(#p6447ae86b9)">
     <use xlink:href="#m7d639f7239" x="191.37316" y="25.469837" style="fill: #2a78d6; stroke: #ffffff; stroke-width: 0.6"/>
    </g>
   </g>
   <g id="line2d_17">
    <g clip-path="url(#p6447ae86b9)">
     <use xlink:href="#m7d639f7239" x="46.675161" y="12.208669" style="fill: #2a78d6; stroke: #ffffff; stroke-width: 0.6"/>
    </g>
   </g>
   <g id="line2d_18">
    <defs>
     <path id="ma338203c82" d="M -2.3 2.3 
L 2.3 2.3 
L 2.3 -2.3 
L -2.3 -2.3 
z
" style="stroke: #ffffff; stroke-width: 0.6; stroke-linejoin: miter"/>
    </defs>
    <g clip-path="url(#p6447ae86b9)">
     <use xlink:href="#ma338203c82" x="77.028099" y="38.731005" style="fill: #eb6834; stroke: #ffffff; stroke-width: 0.6; stroke-linejoin: miter"/>
    </g>
   </g>
   <g id="line2d_19">
    <g clip-path="url(#p6447ae86b9)">
     <use xlink:href="#ma338203c82" x="226.758036" y="25.469837" style="fill: #eb6834; stroke: #ffffff; stroke-width: 0.6; stroke-linejoin: miter"/>
    </g>
   </g>
   <g id="line2d_20">
    <g clip-path="url(#p6447ae86b9)">
     <use xlink:href="#ma338203c82" x="116.085071" y="12.208669" style="fill: #eb6834; stroke: #ffffff; stroke-width: 0.6; stroke-linejoin: miter"/>
    </g>
   </g>
  </g>
  <g id="legend_1">
   <g id="line2d_21">
    <defs>
     <path id="m0bce0538df" d="M 0 2.2 
C 0.583447 2.2 1.143076 1.968194 1.555635 1.555635 
C 1.968194 1.143076 2.2 0.583447 2.2 0 
C 2.2 -0.583447 1.968194 -1.143076 1.555635 -1.555635 
C 1.143076 -1.968194 0.583447 -2.2 0 -2.2 
C -0.583447 -2.2 -1.143076 -1.968194 -1.555635 -1.555635 
C -1.968194 -1.143076 -2.2 -0.583447 -2.2 0 
C -2.2 0.583447 -1.968194 1.143076 -1.555635 1.555635 
C -1.143076 1.968194 -0.583447 2.2 0 2.2 
z
" style="stroke: #ffffff; stroke-width: 0.6"/>
    </defs>
    <g>
     <use xlink:href="#m0bce0538df" x="63.34892" y="82.612108" style="fill: #2a78d6; stroke: #ffffff; stroke-width: 0.6"/>
    </g>
   </g>
   <g id="text_10">
    <text style="font-size: 6px; font-family: 'Arial', 'DejaVu Sans'; text-anchor: start; fill: #111111" x="69.94892" y="84.712108" transform="rotate(-0 69.94892 84.712108)">Mean-value decision</text>
   </g>
   <g id="line2d_22">
    <defs>
     <path id="mda2730d01d" d="M -2.2 2.2 
L 2.2 2.2 
L 2.2 -2.2 
L -2.2 -2.2 
z
" style="stroke: #ffffff; stroke-width: 0.6; stroke-linejoin: miter"/>
    </defs>
    <g>
     <use xlink:href="#mda2730d01d" x="135.17642" y="82.612108" style="fill: #eb6834; stroke: #ffffff; stroke-width: 0.6; stroke-linejoin: miter"/>
    </g>
   </g>
   <g id="text_11">
    <text style="font-size: 6px; font-family: 'Arial', 'DejaVu Sans'; text-anchor: start; fill: #111111" x="141.77642" y="84.712108" transform="rotate(-0 141.77642 84.712108)">Stochastic decision</text>
   </g>
  </g>
 </g>
 <defs>
  <clipPath id="p6447ae86b9">
   <rect x="32.268531" y="4.251969" width="208.896135" height="42.435738"/>
  </clipPath>
 </defs>
</svg>
