<?xml version="1.0" encoding="utf-8" standalone="no"?>
<!DOCTYPE svg PUBLIC "-//W3C//DTD SVG 1.1//EN"
  "http://www.w3.org/Graphics/SVG/1.1/DTD/svg11.dtd">
<svg xmlns:xlink="http://www.w3.org/1999/xlink" width="252.283465pt" height="141.732283pt" viewBox="0 0 252.283465 141.732283" xmlns="http://www.w3.org/2000/svg" version="1.1">
 <metadata>
  <rdf:RDF xmlns:dc="http://purl.org/dc/elements/1.1/" xmlns:cc="http://creativecommons.org/ns#" xmlns:rdf="http://www.w3.org/1999/02/22-rdf-syntax-ns#">
   <cc:Work>
    <dc:type rdf:resource="http://purl.org/dc/dcmitype/StillImage"/>
    <dc:date>2026-10-03T14:13:38.343518</dc:date>
    <dc:format>image/svg+xml</dc:format>
    <dc:creator>
     <cc:Agent>
      <dc:title>Matplotlib v3.11.2, https://matplotlib.org/</dc:title>
     </cc:Agent>
    </dc:creator>
   </cc:Work>
  </rdf:RDF>
 </metadata>
 <defs>
  <style type="text/css">*{stroke-linejoin: round; stroke-linecap: butt}</style>
 </defs>
 <g id="figure_1">
  <g id="patch_1">
   <path d="M 0 141.732283 
L 252.283465 141.732283 
L 252.283465 0 
L 0 0 
z
" style="fill: #ffffff"/>
  </g>
  <g id="axes_1">
   <g id="patch_2">
    <path d="M 24.994429 98.845323 
L 248.031496 98.845323 
L 248.031496 4.251969 
L 24.994429 4.251969 
z
" style="fill: #ffffff"/>
   </g>
   <g id="patch_3">
    <path d="M 34.36707 98.845323 
L 48.028884 98.845323 
L 48.028884 33.608527 
L 34.36707 33.608527 
z
" clip-path="url(#p0fced8d47c)" style="fill: #2a78d6"/>
   </g>
   <g id="patch_4">
    <path d="M 50.252901 98.845323 
L 63.914715 98.845323 
L 63.914715 86.116192 
L 50.252901 86.116192 
z
" clip-path="url(#p0fced8d47c)" style="fill: #2a78d6"/>
   </g>
   <g id="patch_5">
    <path d="M 66.138732 98.845323 
L 79.800546 98.845323 
L 79.800546 95.663041 
L 66.138732 95.663041 
z
" clip-path="url(#p0fced8d47c)" style="fill: #2a78d6"/>
   </g>
   <g id="patch_6">
    <path d="M 82.024563 98.845323 
L 95.686377 98.845323 
L 95.686377 95.663041 
L 82.024563 95.663041 
z
" clip-path="url(#p0fced8d47c)" style="fill: #2a78d6"/>
   </g>
   <g id="patch_7">
    <path d="M 97.910394 98.845323 
L 111.572208 98.845323 
L 111.572208 97.254182 
L 97.910394 97.254182 
z
" clip-path="url(#p0fced8d47c)" style="fill: #eb6834"/>
   </g>
   <g id="patch_8">
    <path d="M 113.796224 98.845323 
L 127.458039 98.845323 
L 127.458039 94.071899 
L 113.796224 94.071899 
z
" clip-path="url(#p0fced8d47c)" style="fill: #eb6834"/>
   </g>
   <g id="patch_9">
    <path d="M 129.682055 98.845323 
L 143.34387 98.845323 
L 143.34387 97.254182 
L 129.682055 97.254182 
z
" clip-path="url(#p0fced8d47c)" style="fill: #eb6834"/>
   </g>
   <g id="patch_10">
    <path d="M 145.567886 98.845323 
L 159.229701 98.845323 
L 159.229701 97.254182 
L 145.567886 97.254182 
z
" clip-path="url(#p0fced8d47c)" style="fill: #eb6834"/>
   </g>
   <g id="patch_11">
    <path d="M 161.453717 98.845323 
L 175.115532 98.845323 
L 175.115532 92.480758 
L 161.453717 92.480758 
z
" clip-path="url(#p0fced8d47c)" style="fill: #eb6834"/>
   </g>
   <g id="patch_12">
    <path d="M 177.339548 98.845323 
L 191.001363 98.845323 
L 191.001363 87.707334 
L 177.339548 87.707334 
z
" clip-path="url(#p0fced8d47c)" style="fill: #eb6834"/>
   </g>
   <g id="patch_13">
    <path d="M 193.225379 98.845323 
L 206.887194 98.845323 
L 206.887194 97.254182 
L 193.225379 97.254182 
z
" clip-path="url(#p0fced8d47c)" style="fill: #eb6834"/>
   </g>
   <g id="patch_14">
    <path d="M 209.11121 98.845323 
L 222.773025 98.845323 
L 222.773025 90.889616 
L 209.11121 90.889616 
z
" clip-path="url(#p0fced8d47c)" style="fill: #eb6834"/>
   </g>
   <g id="patch_15">
    <path d="M 224.997041 98.845323 
L 238.658856 98.845323 
L 238.658856 95.663041 
L 224.997041 95.663041 
z
" clip-path="url(#p0fced8d47c)" style="fill: #eb6834"/>
   </g>
   <g id="line2d_1">
    <path d="M 96.798385 98.845323 
L 96.798385 14.037488 
" clip-path="url(#p0fced8d47c)" style="fill: none; stroke: #3a3a38; stroke-width: 0.5; stroke-linecap: round"/>
   </g>
   <g id="matplotlib.axis_1">
    <g id="xtick_1">
     <g id="line2d_2">
      <defs>
       <path id="m1c6594284d" d="M 0 0 
L 0 2.5 
" style="stroke: #3a3a38; stroke-width: 0.5"/>
      </defs>
      <g>
       <use xlink:href="#m1c6594284d" x="45.916508" y="98.845323" style="fill: #3a3a38; stroke: #3a3a38; stroke-width: 0.5"/>
      </g>
     </g>
     <g id="text_1">
      <text style="font-size: 6px; font-family: 'Arial', 'DejaVu Sans'; text-anchor: middle; fill: #111111" x="45.916508" y="107.713487" transform="rotate(-0 45.916508 107.713487)">−500</text>
     </g>
    </g>
    <g id="xtick_2">
     <g id="line2d_3">
      <g>
       <use xlink:href="#m1c6594284d" x="96.798385" y="98.845323" style="fill: #3a3a38; stroke: #3a3a38; stroke-width: 0.5"/>
      </g>
     </g>
     <g id="text_2">
      <text style="font-size: 6px; font-family: 'Arial', 'DejaVu Sans'; text-anchor: middle; fill: #111111" x="96.798385" y="107.713487" transform="rotate(-0 96.798385 107.713487)">0</text>
     </g>
    </g>
    <g id="xtick_3">
     <g id="line2d_4">
      <g>
       <use xlink:href="#m1c6594284d" x="147.680263" y="98.845323" style="fill: #3a3a38; stroke: #3a3a38; stroke-width: 0.5"/>
      </g>
     </g>
     <g id="text_3">
      <text style="font-size: 6px; font-family: 'Arial', 'DejaVu Sans'; text-anchor: middle; fill: #111111" x="147.680263" y="107.713487" transform="rotate(-0 147.680263 107.713487)">500</text>
     </g>
    </g>
    <g id="xtick_4">
     <g id="line2d_5">
      <g>
       <use xlink:href="#m1c6594284d" x="198.56214" y="98.845323" style="fill: #3a3a38; stroke: #3a3a38; stroke-width: 0.5"/>
      </g>
     </g>
     <g id="text_4">
      <text style="font-size: 6px; font-family: 'Arial', 'DejaVu Sans'; text-anchor: middle; fill: #111111" x="198.56214" y="107.713487" transform="rotate(-0 198.56214 107.713487)">1,000</text>
     </g>
    </g>
    <g id="text_5">
     <text style="font-size: 7px; font-family: 'Arial', 'DejaVu Sans'; text-anchor: middle; fill: #111111" x="136.512963" y="117.072374" transform="rotate(-0 136.512963 117.072374)">Gain of the stochastic decision per scenario</text>
    </g>
   </g>
   <g id="matplotlib.axis_2">
    <g id="ytick_1">
     <g id="line2d_6">
      <defs>
       <path id="mf96fc1b72c" d="M 0 0 
L -2.5 0 
" style="stroke: #3a3a38; stroke-width: 0.5"/>
      </defs>
      <g>
       <use xlink:href="#mf96fc1b72c" x="24.994429" y="98.845323" style="fill: #3a3a38; stroke: #3a3a38; stroke-width: 0.5"/>
      </g>
     </g>
     <g id="text_6">
      <text style="font-size: 6px; font-family: 'Arial', 'DejaVu Sans'; text-anchor: end; fill: #111111" x="20.494429" y="101.029405" transform="rotate(-0 20.494429 101.029405)">0</text>
     </g>
    </g>
    <g id="ytick_2">
     <g id="line2d_7">
      <g>
       <use xlink:href="#mf96fc1b72c" x="24.994429" y="82.93391" style="fill: #3a3a38; stroke: #3a3a38; stroke-width: 0.5"/>
      </g>
     </g>
     <g id="text_7">
      <text style="font-size: 6px; font-family: 'Arial', 'DejaVu Sans'; text-anchor: end; fill: #111111" x="20.494429" y="85.117992" transform="rotate(-0 20.494429 85.117992)">10</text>
     </g>
    </g>
    <g id="ytick_3">
     <g id="line2d_8">
      <g>
       <use xlink:href="#mf96fc1b72c" x="24.994429" y="67.022496" style="fill: #3a3a38; stroke: #3a3a38; stroke-width: 0.5"/>
      </g>
     </g>
     <g id="text_8">
      <text style="font-size: 6px; font-family: 'Arial', 'DejaVu Sans'; text-anchor: end; fill: #111111" x="20.494429" y="69.206578" transform="rotate(-0 20.494429 69.206578)">20</text>
     </g>
    </g>
    <g id="ytick_4">
     <g id="line2d_9">
      <g>
       <use xlink:href="#mf96fc1b72c" x="24.994429" y="51.111082" style="fill: #3a3a38; stroke: #3a3a38; stroke-width: 0.5"/>
      </g>
     </g>
     <g id="text_9">
      <text style="font-size: 6px; font-family: 'Arial', 'DejaVu Sans'; text-anchor: end; fill: #111111" x="20.494429" y="53.295164" transform="rotate(-0 20.494429 53.295164)">30</text>
     </g>
    </g>
    <g id="ytick_5">
     <g id="line2d_10">
      <g>
       <use xlink:href="#mf96fc1b72c" x="24.994429" y="35.199668" style="fill: #3a3a38; stroke: #3a3a38; stroke-width: 0.5"/>
      </g>
     </g>
     <g id="text_10">
      <text style="font-size: 6px; font-family: 'Arial', 'DejaVu Sans'; text-anchor: end; fill: #111111" x="20.494429" y="37.38375" transform="rotate(-0 20.494429 37.38375)">40</text>
     </g>
    </g>
    <g id="text_11">
     <text style="font-size: 7px; font-family: 'Arial', 'DejaVu Sans'; text-anchor: middle; fill: #111111" x="9.34816" y="51.548646" transform="rotate(-90 9.34816 51.548646)">Scenarios</text>
    </g>
   </g>
   <g id="line2d_11">
    <path d="M 74.63231 23.170639 
L 104.089585 23.170639 
" clip-path="url(#p0fced8d47c)" style="fill: none; stroke: #111111"/>
   </g>
   <g id="line2d_12">
    <path d="M 74.63231 25.127743 
L 74.63231 21.213536 
" clip-path="url(#p0fced8d47c)" style="fill: none; stroke: #111111; stroke-linecap: round"/>
   </g>
   <g id="line2d_13">
    <path d="M 104.089585 25.127743 
L 104.089585 21.213536 
" clip-path="url(#p0fced8d47c)" style="fill: none; stroke: #111111; stroke-linecap: round"/>
   </g>
   <g id="line2d_14">
    <defs>
     <path id="mf9605daff4" d="M 0 2 
C 0.530406 2 1.03916 1.789267 1.414214 1.414214 
C 1.789267 1.03916 2 0.530406 2 0 
C 2 -0.530406 1.789267 -1.03916 1.414214 -1.414214 
C 1.03916 -1.789267 0.530406 -2 0 -2 
C -0.530406 -2 -1.03916 -1.789267 -1.414214 -1.414214 
C -1.789267 -1.03916 -2 -0.530406 -2 0 
C -2 0.530406 -1.789267 1.03916 -1.414214 1.414214 
C -1.03916 1.789267 -0.530406 2 0 2 
z
" style="stroke: #ffffff; stroke-width: 0.6"/>
    </defs>
    <g clip-path="url(#p0fced8d47c)">
     <use xlink:href="#mf9605daff4" x="88.830727" y="23.170639" style="fill: #111111; stroke: #ffffff; stroke-width: 0.6"/>
    </g>
   </g>
   <g id="patch_16">
    <path d="M 24.994429 98.845323 
L 24.994429 4.251969 
" style="fill: none; stroke: #3a3a38; stroke-width: 0.5; stroke-linejoin: miter; stroke-linecap: square"/>
   </g>
   <g id="patch_17">
    <path d="M 24.994429 98.845323 
L 248.031496 98.845323 
" style="fill: none; stroke: #3a3a38; stroke-width: 0.5; stroke-linejoin: miter; stroke-linecap: square"/>
   </g>
   <g id="text_12">
    <text style="font-size: 6px; font-family: 'Arial', 'DejaVu Sans'; fill: #111111" transform="translate(150.738625 10.476408)">mean −78.3, 95% CI −217.8 to 71.6</text>
    <text style="font-size: 6px; font-family: 'Arial', 'DejaVu Sans'; fill: #111111" transform="translate(182.104563 17.860451)">stochastic better in 32%</text>
   </g>
  </g>
  <g id="legend_1">
   <g id="patch_18">
    <path d="M 42.140795 136.869588 
L 50.540795 136.869588 
L 50.540795 132.669588 
L 42.140795 132.669588 
z
" style="fill: #2a78d6"/>
   </g>
   <g id="text_13">
    <text style="font-size: 6px; font-family: 'Arial', 'DejaVu Sans'; text-anchor: start; fill: #111111" x="52.940795" y="136.869588" transform="rotate(-0 52.940795 136.869588)">Mean-value decision better</text>
   </g>
   <g id="patch_19">
    <path d="M 130.97642 136.869588 
L 139.37642 136.869588 
L 139.37642 132.669588 
L 130.97642 132.669588 
z
" style="fill: #eb6834"/>
   </g>
   <g id="text_14">
    <text style="font-size: 6px; font-family: 'Arial', 'DejaVu Sans'; text-anchor: start; fill: #111111" x="141.77642" y="136.869588" transform="rotate(-0 141.77642 136.869588)">Stochastic decision better</text>
   </g>
  </g>
 </g>
 <defs>
  <clipPath id="p0fced8d47c">
   <rect x="24.994429" y="4.251969" width="223.037067" height="94.593355"/>
  </clipPath>
 </defs>
</svg>
